<svg width="1080" height="700" viewBox="0 0 1080 700" fill="none" xmlns="http://www.w3.org/2000/svg">
<path d="M945.692 570.117H207.324C205.02 564.312 202.532 558.597 199.834 552.998C183.931 519.981 161.251 490.579 150.844 455.009C140.056 418.144 144.176 375.664 164.215 343.828C197.75 290.544 266.722 275.189 299.774 221.542C326.001 178.973 325.095 118.885 358.374 82.7723C384.395 54.5374 424.744 49.1314 461.004 54.1168C497.266 59.1021 532.261 72.769 568.632 76.6553C606.39 80.6908 645.063 73.8709 679.784 57.0586C699.198 47.6578 717.604 35.1198 738.253 29.779C770.982 21.3118 806.819 32.7154 832.19 56.9935C857.562 81.2688 872.597 117.366 875.484 154.228C878.014 186.539 871.769 218.826 870.201 251.21C868.632 283.594 872.657 318.568 892.131 342.905C911.085 366.592 941.219 375.979 961.546 398.243C991.776 431.35 993.065 487.48 973.408 529.132C966.184 544.441 956.653 558.021 945.694 570.12L945.692 570.117Z" fill="#F1F7FD"/>
<path d="M86.8159 664.355V667.354C86.8159 667.452 86.7399 667.528 86.6422 667.528H24.6661C24.5738 667.528 24.4924 667.452 24.4924 667.354V664.355C24.4924 664.263 24.5711 664.181 24.6661 664.181H86.6422C86.7399 664.181 86.8159 664.26 86.8159 664.355Z" fill="#C4D8E7"/>
<path d="M255.921 664.355V667.354C255.921 667.452 255.845 667.528 255.748 667.528H193.777C193.679 667.528 193.603 667.452 193.603 667.354V664.355C193.603 664.279 193.655 664.214 193.725 664.192C193.742 664.184 193.761 664.181 193.777 664.181H255.748C255.845 664.181 255.921 664.26 255.921 664.355Z" fill="#C4D8E7"/>
<path d="M409.832 624.641V627.64C409.832 627.732 409.753 627.813 409.658 627.813H347.682C347.59 627.813 347.508 627.735 347.508 627.64V624.641C347.508 624.543 347.587 624.467 347.682 624.467H409.658C409.75 624.467 409.832 624.543 409.832 624.641Z" fill="#C4D8E7"/>
<path d="M497.364 668.562V671.56C497.364 671.653 497.288 671.734 497.19 671.734H435.22C435.122 671.734 435.046 671.655 435.046 671.56V668.562C435.046 668.464 435.122 668.388 435.22 668.388H497.19C497.288 668.388 497.364 668.464 497.364 668.562Z" fill="#C4D8E7"/>
<path d="M713.332 668.562V671.56C713.332 671.653 713.256 671.734 713.159 671.734H651.188C651.09 671.734 651.014 671.655 651.014 671.56V668.562C651.014 668.464 651.09 668.388 651.188 668.388H713.159C713.256 668.388 713.332 668.464 713.332 668.562Z" fill="#C4D8E7"/>
<path d="M954.783 665.905H892.812C892.716 665.905 892.639 665.983 892.639 666.078V669.075C892.639 669.17 892.716 669.248 892.812 669.248H954.783C954.879 669.248 954.957 669.17 954.957 669.075V666.078C954.957 665.983 954.879 665.905 954.783 665.905Z" fill="#C4D8E7"/>
<path d="M187.388 618.204V621.202C187.388 621.295 187.31 621.376 187.215 621.376H125.239C125.146 621.376 125.065 621.297 125.065 621.202V618.204C125.065 618.106 125.144 618.03 125.239 618.03H187.215C187.307 618.03 187.388 618.106 187.388 618.204Z" fill="#C4D8E7"/>
<path d="M617.395 616.572V619.571C617.395 619.669 617.319 619.745 617.221 619.745H555.245C555.153 619.745 555.071 619.669 555.071 619.571V616.572C555.071 616.48 555.15 616.399 555.245 616.399H617.221C617.319 616.399 617.395 616.477 617.395 616.572Z" fill="#C4D8E7"/>
<path d="M1055.52 616.312V619.311C1055.52 619.408 1055.44 619.484 1055.34 619.484H993.371C993.311 619.484 993.257 619.455 993.225 619.408C993.208 619.381 993.198 619.346 993.198 619.311V616.312C993.198 616.214 993.273 616.138 993.371 616.138H1055.34C1055.44 616.138 1055.52 616.214 1055.52 616.312Z" fill="#C4D8E7"/>
<path d="M839.868 600.735V603.733C839.868 603.831 839.792 603.907 839.694 603.907H777.718C777.626 603.907 777.544 603.831 777.544 603.733V600.735C777.544 600.637 777.623 600.561 777.718 600.561H839.694C839.792 600.561 839.868 600.637 839.868 600.735Z" fill="#C4D8E7"/>
<path d="M711.289 385.529C710.949 385.407 714.233 364.798 728.234 345.953C734.033 338.148 740.207 332.614 740.454 332.853C740.755 333.146 731.982 341.771 723.989 355.215C714.032 371.963 711.565 385.629 711.289 385.529Z" fill="#D8E2F3"/>
<path d="M1.89969 284.512C1.8617 284.191 1.8807 283.89 1.96211 283.605C2.04353 283.32 2.17651 283.065 2.35833 282.84C2.54288 282.615 2.77355 282.43 3.05308 282.283C3.3326 282.137 3.65555 282.039 4.02192 281.996C4.38829 281.952 4.72752 281.966 5.03961 282.042C5.35171 282.118 5.62309 282.24 5.85648 282.414C6.08987 282.587 6.27984 282.802 6.42639 283.06C6.57294 283.317 6.66792 283.605 6.70592 283.925C6.74391 284.246 6.72491 284.544 6.6435 284.826C6.56208 285.106 6.4291 285.358 6.24456 285.584C6.06002 285.809 5.82663 285.993 5.54168 286.143C5.25672 286.289 4.93106 286.387 4.56469 286.433C4.19832 286.479 3.85909 286.463 3.55514 286.387C3.24848 286.311 2.9798 286.186 2.74641 286.015C2.51302 285.841 2.32305 285.63 2.17651 285.377C2.02996 285.125 1.93769 284.84 1.89698 284.52L1.89969 284.512ZM5.57696 279.863L2.00282 280.3L0 268.152L4.5864 267.591L5.57696 279.863Z" fill="#C4D8E7"/>
<path d="M155.91 188.802C155.992 188.49 156.119 188.216 156.301 187.98C156.48 187.744 156.697 187.557 156.95 187.413C157.202 187.272 157.487 187.182 157.799 187.147C158.114 187.112 158.448 187.141 158.806 187.234C159.164 187.326 159.474 187.464 159.737 187.646C160 187.831 160.207 188.045 160.361 188.289C160.516 188.536 160.614 188.805 160.657 189.098C160.7 189.391 160.681 189.695 160.6 190.007C160.519 190.319 160.391 190.591 160.212 190.821C160.033 191.052 159.818 191.239 159.563 191.38C159.311 191.522 159.023 191.608 158.706 191.644C158.388 191.676 158.049 191.649 157.691 191.557C157.333 191.465 157.023 191.326 156.768 191.144C156.51 190.963 156.304 190.748 156.152 190.501C155.997 190.254 155.9 189.988 155.856 189.698C155.813 189.41 155.829 189.109 155.91 188.797V188.802ZM161.032 185.82L157.544 184.921L160.12 172.883L164.592 174.036L161.029 185.82H161.032Z" fill="#C4D8E7"/>
<path d="M327.415 75.548C327.455 75.2278 327.55 74.9401 327.697 74.6823C327.846 74.4245 328.036 74.2101 328.27 74.0391C328.503 73.8681 328.774 73.7433 329.081 73.67C329.388 73.5967 329.724 73.5805 330.091 73.6293C330.457 73.6782 330.783 73.7731 331.068 73.9224C331.35 74.0717 331.583 74.2589 331.768 74.4842C331.952 74.7094 332.083 74.9645 332.161 75.2495C332.24 75.5344 332.262 75.8384 332.221 76.1559C332.18 76.4734 332.085 76.7611 331.939 77.0135C331.792 77.2659 331.6 77.4776 331.366 77.6485C331.133 77.8195 330.861 77.9443 330.549 78.0176C330.237 78.0909 329.898 78.1045 329.532 78.0583C329.165 78.0122 328.842 77.9145 328.563 77.7652C328.283 77.616 328.053 77.4314 327.871 77.2062C327.686 76.9809 327.556 76.7285 327.474 76.449C327.393 76.1695 327.374 75.8682 327.415 75.548ZM332.118 71.944L328.546 71.4908L329.583 59.2242L334.167 59.805L332.118 71.944Z" fill="#C4D8E7"/>
<path d="M26.0258 125.42C25.9118 124.888 25.8982 124.376 25.9932 123.882C26.0855 123.39 26.27 122.94 26.5469 122.533C26.8237 122.128 27.1846 121.778 27.6324 121.488C28.0802 121.198 28.6094 120.986 29.22 120.853C29.8306 120.72 30.4059 120.696 30.9406 120.772C31.4752 120.85 31.9528 121.019 32.3735 121.274C32.7914 121.529 33.1442 121.863 33.4319 122.272C33.7196 122.682 33.9204 123.154 34.0371 123.686C34.1538 124.218 34.1619 124.728 34.0669 125.211C33.9719 125.697 33.7874 126.142 33.5133 126.547C33.2365 126.954 32.8728 127.301 32.4169 127.594C31.961 127.887 31.4264 128.099 30.8157 128.232C30.2051 128.365 29.6352 128.389 29.106 128.311C28.5795 128.232 28.1046 128.064 27.6867 127.806C27.2687 127.551 26.9159 127.222 26.631 126.818C26.346 126.416 26.1452 125.947 26.0285 125.415L26.0258 125.42ZM31.5051 117.029L25.5563 118.316L20.3213 98.1679L27.9581 96.5179L31.5078 117.032L31.5051 117.029Z" fill="#C4D8E7"/>
<path d="M938.774 165.347C938.796 164.801 938.912 164.302 939.124 163.848C939.336 163.395 939.626 163.004 939.993 162.682C940.362 162.359 940.796 162.109 941.303 161.938C941.808 161.767 942.375 161.694 943 161.718C943.624 161.743 944.188 161.859 944.688 162.068C945.187 162.277 945.607 162.557 945.949 162.909C946.291 163.262 946.549 163.672 946.728 164.142C946.905 164.611 946.983 165.119 946.962 165.661C946.94 166.204 946.823 166.701 946.612 167.146C946.4 167.591 946.11 167.976 945.743 168.302C945.374 168.628 944.934 168.875 944.419 169.043C943.906 169.214 943.336 169.287 942.709 169.263C942.085 169.238 941.526 169.121 941.035 168.912C940.543 168.704 940.128 168.424 939.786 168.071C939.444 167.721 939.184 167.314 939.007 166.853C938.831 166.391 938.752 165.889 938.774 165.344V165.347ZM946.167 158.581L940.085 158.347L940.02 137.53L947.825 137.828L946.167 158.578V158.581Z" fill="#C4D8E7"/>
<path d="M1072.13 325.792C1072.07 325.271 1072.11 324.777 1072.25 324.316C1072.39 323.851 1072.61 323.442 1072.91 323.078C1073.22 322.717 1073.6 322.419 1074.05 322.185C1074.51 321.952 1075.04 321.8 1075.64 321.735C1076.24 321.67 1076.79 321.699 1077.3 321.827C1077.8 321.955 1078.24 322.163 1078.62 322.448C1078.99 322.736 1079.3 323.089 1079.53 323.512C1079.77 323.936 1079.91 324.405 1079.97 324.926C1080.03 325.447 1079.99 325.936 1079.85 326.392C1079.71 326.848 1079.49 327.255 1079.19 327.616C1078.88 327.977 1078.5 328.275 1078.03 328.511C1077.56 328.747 1077.03 328.897 1076.43 328.962C1075.83 329.027 1075.29 328.997 1074.79 328.867C1074.29 328.736 1073.86 328.53 1073.48 328.242C1073.1 327.958 1072.8 327.605 1072.56 327.192C1072.33 326.777 1072.18 326.31 1072.13 325.789L1072.13 325.792ZM1078.21 318.296L1072.38 318.939L1069.36 299.115L1076.84 298.29L1078.21 318.296Z" fill="#C4D8E7"/>
<path d="M183.768 571C157.491 571 134.065 566.166 113.49 556.497C93.0381 546.828 76.801 533.503 64.7781 516.521C52.7551 499.539 46.4958 480.078 46 458.138H124.087C124.955 472.889 131.152 484.85 142.679 494.023C154.206 503.196 167.903 507.782 183.768 507.782C196.411 507.782 207.566 504.993 217.234 499.415C227.026 493.713 234.648 485.842 240.102 475.802C245.68 465.637 248.469 453.985 248.469 440.846C248.469 427.459 245.618 415.683 239.916 405.518C234.339 395.354 226.592 387.421 216.676 381.719C206.76 376.017 195.419 373.104 182.652 372.98C171.497 372.98 160.652 375.273 150.116 379.859C139.704 384.446 131.586 390.706 125.76 398.639L54.1805 385.809L72.2149 185H304.989V250.821H138.589L128.735 346.205H130.966C137.659 336.785 147.761 328.975 161.271 322.777C174.782 316.58 189.903 313.481 206.636 313.481C229.567 313.481 250.018 318.873 267.99 329.657C285.963 340.441 300.155 355.254 310.566 374.095C320.978 392.813 326.122 414.381 325.998 438.801C326.122 464.46 320.172 487.267 308.149 507.224C296.25 527.057 279.579 542.676 258.136 554.08C236.817 565.36 212.028 571 183.768 571Z" fill="#254977"/>
<path d="M166.768 571C140.491 571 117.065 566.166 96.4895 556.497C76.0381 546.828 59.801 533.503 47.7781 516.521C35.7551 499.539 29.4958 480.078 29 458.138H107.087C107.955 472.889 114.152 484.85 125.679 494.023C137.206 503.196 150.903 507.782 166.768 507.782C179.411 507.782 190.566 504.993 200.234 499.415C210.026 493.713 217.648 485.842 223.102 475.802C228.68 465.637 231.469 453.985 231.469 440.846C231.469 427.459 228.618 415.683 222.916 405.518C217.339 395.354 209.592 387.421 199.676 381.719C189.76 376.017 178.419 373.104 165.652 372.98C154.497 372.98 143.652 375.273 133.116 379.859C122.704 384.446 114.586 390.706 108.76 398.639L37.1805 385.809L55.2149 185H287.989V250.821H121.589L111.735 346.205H113.966C120.659 336.785 130.761 328.975 144.271 322.777C157.782 316.58 172.903 313.481 189.636 313.481C212.567 313.481 233.018 318.873 250.99 329.657C268.963 340.441 283.155 355.254 293.566 374.095C303.978 392.813 309.122 414.381 308.998 438.801C309.122 464.46 303.172 487.267 291.149 507.224C279.25 527.057 262.579 542.676 241.136 554.08C219.817 565.36 195.028 571 166.768 571Z" fill="#3F6693"/>
<path d="M855.672 373.87L858.573 360.464C867.894 362.095 873.091 360.641 874.493 354.156L874.758 352.929C875.726 348.459 873.331 345.472 869.105 344.568C864.526 343.589 860.762 346.082 858.776 350.15L849 343.381C852.541 336.806 859.955 331.059 871.931 333.625C884.258 336.264 890.854 345.38 888.543 356.068C886.422 365.88 877.924 370.661 869.364 370.203L867.999 376.512L855.672 373.873V373.87ZM850.972 388.356L851.426 386.253C852.242 382.486 855.156 380.085 860.703 381.273C866.249 382.461 867.914 385.843 867.099 389.611L866.644 391.714C865.829 395.481 862.915 397.882 857.368 396.694C851.821 395.507 850.157 392.124 850.972 388.356Z" fill="#C4D8E7"/>
<path d="M670.595 307.251L704.905 275.059C704.919 275.046 704.933 275.035 704.946 275.022C705.054 274.909 705.175 274.796 705.293 274.686L735.073 247.914C735.073 247.914 734.594 246.968 734.874 245.147C735.084 243.818 735.675 242.573 736.507 241.516L738.627 238.804C738.893 238.463 739.363 238.356 739.755 238.543C740.122 238.718 740.324 239.109 740.27 239.509L739.809 242.654C741.672 240.406 746.626 234.285 748.297 235.314C750.064 236.408 750.746 240.751 746.816 246.149C743.773 250.328 740.07 252.495 740.07 252.495L740.006 252.555L713.536 282.874C713.288 283.155 713.019 283.41 712.731 283.629C709.014 287.686 703.206 294.031 697.412 300.367" fill="white"/>
<path d="M749.208 235.835C749.507 236.27 749.729 236.819 749.854 237.457C750.341 239.946 749.313 243.172 747.032 246.307C744.133 250.288 740.588 252.494 740.235 252.708L740.194 252.748L713.742 283.047C713.481 283.344 713.205 283.603 712.92 283.824C709.203 287.881 703.401 294.216 697.616 300.544L697.218 300.181C703.011 293.844 708.82 287.499 712.537 283.442L712.571 283.412C712.836 283.208 713.093 282.966 713.337 282.691L739.805 252.376L739.907 252.277L739.933 252.261C739.969 252.239 743.627 250.069 746.597 245.989C749.714 241.708 749.545 238.668 749.327 237.559C749.142 236.609 748.724 235.892 748.154 235.54C746.753 234.678 741.873 240.577 740.27 242.516L739.404 243.56L740.003 239.467C740.042 239.182 739.895 238.907 739.639 238.783C739.364 238.649 739.025 238.728 738.839 238.968L736.719 241.68C735.879 242.752 735.333 243.964 735.141 245.189C734.878 246.884 735.312 247.785 735.316 247.792L735.406 247.976L735.254 248.113L705.475 274.885C705.36 274.989 705.246 275.095 705.143 275.205L705.103 275.245L670.784 307.446L670.415 307.054L704.755 274.835C704.867 274.719 704.99 274.602 705.116 274.488L734.755 247.842C734.621 247.463 734.39 246.538 734.61 245.107C734.817 243.792 735.401 242.492 736.298 241.352L738.418 238.639C738.76 238.202 739.373 238.06 739.874 238.301C740.343 238.528 740.612 239.026 740.539 239.545L740.216 241.743C743.614 237.664 746.911 234.141 748.439 235.084C748.734 235.265 748.993 235.522 749.211 235.838L749.208 235.835Z" fill="#0A131D"/>
<path d="M669.974 304.848C667.195 309.497 668.709 315.518 673.358 318.297C677.482 320.765 682.682 319.845 685.745 316.36L685.751 316.364C690.217 311.611 694.685 306.857 699.151 302.104C697.298 301.522 694.171 300.272 691.124 297.554C687.401 294.229 685.764 290.46 685.084 288.554C680.676 293.225 676.269 297.892 671.86 302.563C671.137 303.209 670.5 303.971 669.974 304.848Z" fill="#254A78"/>
<path d="M685.921 288.4C686.882 289.495 687.832 290.708 688.818 292.103C689.045 292.422 689.267 292.742 689.49 293.065C690.602 294.664 691.75 296.316 693.268 297.691C693.425 297.833 693.59 297.976 693.757 298.111C695.746 299.742 698.184 300.777 700.457 300.986L699.188 301.877C696.824 301.912 694.151 300.896 692.027 299.154C691.872 299.027 691.72 298.895 691.572 298.762C690.129 297.456 689.006 295.842 687.923 294.28C687.698 293.958 687.475 293.633 687.248 293.314C686.244 291.898 685.276 290.659 684.298 289.543L685.921 288.4Z" fill="white"/>
<path d="M691.867 299.348L692.189 298.958C692.04 298.835 691.892 298.71 691.75 298.581C690.346 297.308 689.237 295.716 688.168 294.176C687.947 293.858 687.718 293.529 687.49 293.207C686.551 291.883 685.644 290.714 684.73 289.653L685.932 288.806C686.805 289.821 687.674 290.941 688.574 292.214C688.798 292.531 689.024 292.858 689.245 293.173C690.369 294.792 691.532 296.467 693.091 297.875C693.254 298.024 693.425 298.169 693.596 298.311C695.393 299.785 697.548 300.789 699.628 301.159L699.018 301.587C696.756 301.597 694.213 300.622 692.186 298.958L691.865 299.349M691.865 299.349C694.081 301.165 696.892 302.224 699.357 302.166L701.402 300.732C698.938 300.789 696.129 299.729 693.916 297.916C693.755 297.785 693.597 297.648 693.443 297.508C691.663 295.898 690.407 293.897 689.054 291.992C688.083 290.618 687.041 289.273 685.9 287.996L683.856 289.436C684.994 290.71 686.029 292.051 687 293.42C688.35 295.326 689.609 297.329 691.389 298.942C691.543 299.082 691.701 299.216 691.862 299.349L691.865 299.349Z" fill="#0A131D"/>
<path d="M675.423 367.85C657.594 395.525 642.691 424.765 627.609 453.878C625.242 458.446 622.94 463.042 620.587 467.615C617.92 472.802 615.253 477.991 612.586 483.178L609.862 482.201L600.361 478.791L597.846 477.891C601.683 469.145 605.524 460.399 609.361 451.65C612.369 443.289 616.569 435.204 620.129 427.057C623.641 419.023 627.147 410.99 630.616 402.938C634.054 394.957 637.49 386.978 640.929 378.997C640.98 378.881 641.03 378.762 641.089 378.647L641.026 378.624C639.413 362.35 648.306 358.096 648.306 358.096L675.423 367.852L675.423 367.85Z" fill="white"/>
<path d="M597.484 478.043L609.116 451.538C611.11 445.991 613.674 440.476 616.151 435.142C617.399 432.456 618.69 429.679 619.884 426.945C623.459 418.763 626.951 410.765 630.368 402.829L640.682 378.888C640.708 378.827 640.734 378.766 640.763 378.702L640.758 378.647C640.294 373.964 640.449 367.294 643.835 362.106C645.873 358.98 648.095 357.895 648.188 357.849L648.289 357.801L675.832 367.708L675.649 367.993C658.937 393.934 644.563 421.706 630.661 448.562L627.848 453.998C626.501 456.598 625.152 459.249 623.847 461.814C622.842 463.787 621.839 465.762 620.825 467.732L612.718 483.504L597.483 478.041L597.484 478.043ZM641.276 378.426L641.464 378.493L641.327 378.764C641.27 378.876 641.222 378.989 641.175 379.1L630.862 403.04C627.442 410.977 623.95 418.977 620.375 427.159C619.177 429.9 617.887 432.679 616.636 435.368C614.162 440.691 611.608 446.196 609.612 451.738L598.207 477.731L612.455 482.842L620.347 467.488C621.359 465.519 622.364 463.546 623.367 461.571C624.672 459.006 626.022 456.352 627.369 453.749L630.183 448.313C644.038 421.543 658.365 393.865 675.014 367.984L648.326 358.382C647.383 358.906 639.866 363.59 641.277 378.421L641.276 378.426Z" fill="#0A131D"/>
<path d="M669.867 390.004L670.063 389.225C670.012 389.485 669.942 389.747 669.867 390.004Z" fill="white"/>
<path d="M669.606 389.939L669.802 389.159L670.327 389.277C670.28 389.518 670.214 389.781 670.124 390.081L669.606 389.939Z" fill="#0A131D"/>
<path d="M640.545 493.25L626.726 488.279L637.97 433.794L637.973 433.783L638.341 433.066L638.425 432.901C638.548 432.694 638.656 432.484 638.753 432.268C638.76 432.262 638.759 432.259 638.763 432.253C639.079 431.874 639.362 431.467 639.606 431.034L641.074 428.281L662.965 387.256L663.186 386.841L667.533 380.092L675.418 367.851L670.061 389.227L669.865 390.006L657.294 435.956C657.152 436.433 656.967 436.898 656.743 437.335C656.744 437.34 656.744 437.342 656.739 437.346C656.694 437.576 656.634 437.804 656.564 438.033L640.542 493.25L640.545 493.25Z" fill="white"/>
<path d="M640.721 493.599L626.415 488.451L637.725 433.684L637.736 433.658L638.188 432.775C638.314 432.56 638.416 432.359 638.512 432.155L638.56 432.079C638.862 431.719 639.137 431.321 639.372 430.9L662.95 386.711L676.078 366.328L670.127 390.067L657.554 436.022C657.407 436.514 657.221 436.984 657.001 437.42L656.996 437.434C656.952 437.646 656.898 437.859 656.821 438.108L640.721 493.599ZM627.036 488.104L640.365 492.9L656.306 437.957C656.373 437.739 656.421 437.551 656.461 437.373L656.441 437.336L656.484 437.251L656.503 437.151L656.543 437.136C656.74 436.741 656.905 436.318 657.036 435.88L669.606 389.936L669.8 389.163L674.762 369.372L663.413 386.989L663.203 387.386L639.843 431.164C639.595 431.605 639.313 432.015 639.002 432.39L638.977 432.43C638.881 432.635 638.777 432.836 638.659 433.039L638.228 433.88L627.036 488.107L627.036 488.104Z" fill="#0A131D"/>
<path d="M679.506 297.659C679.506 297.659 678.649 296.927 676.83 297.353C665.279 300.061 656.927 309.111 655.334 320.266C653.121 331.595 650.908 342.923 648.697 354.248C658.195 357.645 667.694 361.04 677.192 364.437C680.603 355.043 684.012 345.649 687.423 336.254C687.423 336.254 697.331 316.499 687.278 301.711L679.506 297.662L679.506 297.659Z" fill="#254A78"/>
<path d="M660.682 282.633L663.644 301.316C665.404 302.967 667.885 303.812 670.456 303.406C673.381 302.943 675.687 300.979 676.719 298.426L673.885 280.54L660.684 282.633L660.682 282.633ZM676.307 298.828C676.252 298.937 676.197 299.043 676.136 299.148C675.872 299.646 675.556 300.11 675.195 300.529C675.088 300.659 674.974 300.781 674.855 300.905C674.069 301.715 673.114 302.348 672.043 302.761C671.998 302.78 671.953 302.796 671.91 302.81C671.81 302.847 671.712 302.881 671.608 302.911C671.478 302.956 671.348 302.993 671.213 303.029C670.953 303.098 670.688 303.152 670.423 303.196C669.977 303.267 669.525 303.297 669.078 303.291C668.815 303.288 668.555 303.272 668.296 303.242C667.235 303.127 666.215 302.799 665.286 302.265C665.157 302.192 665.034 302.116 664.907 302.035C664.8 301.964 664.691 301.893 664.586 301.816C664.45 301.716 664.313 301.612 664.178 301.501C664.062 301.407 663.95 301.308 663.84 301.205L662.049 289.905C663.15 289.585 664.166 288.962 665.027 288.192C665.874 287.437 666.588 286.552 667.243 285.622C667.653 286.426 668.167 287.16 668.765 287.806C669.96 290.267 672.152 293.376 675.829 294.183L676.497 298.395C676.438 298.542 676.374 298.687 676.307 298.828Z" fill="white"/>
<path d="M670.685 303.5C670.615 303.513 670.546 303.526 670.475 303.536C667.943 303.938 665.419 303.163 663.552 301.413L663.52 301.382L663.512 301.338L660.531 282.525L673.991 280.39L676.853 298.439L676.84 298.474C675.769 301.119 673.477 302.984 670.685 303.498L670.685 303.5ZM663.962 301.143C664.059 301.232 664.158 301.32 664.259 301.403C664.391 301.513 664.528 301.616 664.66 301.712C664.762 301.787 664.869 301.858 664.975 301.927C665.097 302.006 665.22 302.079 665.346 302.152C666.263 302.678 667.258 303.001 668.305 303.113C668.551 303.142 668.802 303.157 669.073 303.161C669.52 303.167 669.963 303.136 670.397 303.067C670.673 303.024 670.935 302.968 671.174 302.905C671.307 302.868 671.434 302.833 671.562 302.789C671.671 302.758 671.767 302.724 671.862 302.688C671.914 302.67 671.952 302.655 671.986 302.641C673.042 302.235 673.972 301.621 674.756 300.814C674.87 300.694 674.981 300.572 675.089 300.445C675.446 300.029 675.757 299.574 676.015 299.085C676.075 298.978 676.128 298.875 676.184 298.768C676.243 298.642 676.302 298.511 676.355 298.378L675.707 294.291C672.048 293.446 669.85 290.349 668.648 287.881C668.087 287.274 667.607 286.6 667.217 285.875C666.49 286.889 665.817 287.662 665.107 288.292C664.205 289.097 663.199 289.686 662.19 290L663.957 301.141L663.962 301.143ZM667.261 285.37L667.361 285.566C667.759 286.348 668.264 287.073 668.861 287.719L668.883 287.75C670.067 290.189 672.238 293.261 675.856 294.055L675.893 294.064L673.774 280.692L660.833 282.742L661.952 289.798L662.013 289.781C663.023 289.488 664.036 288.907 664.94 288.096C665.675 287.442 666.371 286.633 667.136 285.548L667.261 285.37Z" fill="#0A131D"/>
<path d="M668.298 303.245C668.557 303.278 668.818 303.297 669.079 303.294C668.817 303.292 668.557 303.275 668.298 303.245ZM660.439 282.459L663.445 301.42L663.502 301.468C663.647 301.602 663.794 301.735 663.945 301.857C664.042 301.936 664.139 302.011 664.238 302.084C664.325 302.151 664.415 302.217 664.512 302.28C664.558 302.314 664.607 302.345 664.656 302.379C664.902 302.542 665.15 302.686 665.409 302.815C665.537 302.882 665.669 302.946 665.797 303.003C665.91 303.054 666.021 303.103 666.138 303.146C666.164 303.157 666.194 303.17 666.224 303.175C666.314 303.212 666.408 303.246 666.502 303.276C666.547 303.292 666.596 303.31 666.641 303.323C666.747 303.362 666.857 303.393 666.972 303.422C666.998 303.431 667.018 303.435 667.043 303.444C667.145 303.474 667.246 303.498 667.345 303.517C667.412 303.531 667.478 303.543 667.545 303.558C667.62 303.573 667.696 303.591 667.775 303.598C667.841 303.613 667.907 303.622 667.973 303.631C668.051 303.646 668.13 303.656 668.209 303.663C668.296 303.673 668.386 303.683 668.475 303.688C668.533 303.697 668.59 303.699 668.646 303.702C668.719 303.708 668.797 303.709 668.873 303.712C668.962 303.717 669.05 303.719 669.139 303.721C669.339 303.722 669.541 303.714 669.739 303.699C669.843 303.696 669.945 303.688 670.05 303.674C670.196 303.658 670.343 303.639 670.491 303.617C670.66 303.591 670.825 303.561 670.987 303.523C671.131 303.491 671.274 303.457 671.416 303.415C671.462 303.406 671.508 303.392 671.556 303.375C671.682 303.339 671.806 303.3 671.927 303.259C671.942 303.254 671.957 303.246 671.97 303.243C672.118 303.192 672.267 303.132 672.409 303.074C672.546 303.02 672.676 302.958 672.807 302.899C672.826 302.888 672.844 302.882 672.866 302.87C672.979 302.817 673.086 302.757 673.193 302.7C673.282 302.649 673.37 302.601 673.458 302.544C673.557 302.489 673.653 302.428 673.751 302.365C674.007 302.2 674.251 302.016 674.487 301.82C674.613 301.72 674.733 301.617 674.851 301.502C675.381 301.012 675.849 300.445 676.236 299.82C676.302 299.725 676.358 299.626 676.415 299.53C676.447 299.469 676.482 299.411 676.511 299.35C676.656 299.077 676.789 298.799 676.908 298.504L676.933 298.449L674.056 280.301L660.434 282.46L660.439 282.459ZM674.859 300.907C674.073 301.718 673.118 302.35 672.047 302.764C672.002 302.783 671.957 302.799 671.914 302.812C671.814 302.849 671.716 302.884 671.612 302.913C671.482 302.959 671.352 302.996 671.217 303.032C670.957 303.101 670.692 303.155 670.427 303.198C669.981 303.27 669.529 303.299 669.082 303.294C668.819 303.291 668.56 303.275 668.3 303.245C667.239 303.13 666.219 302.802 665.29 302.267C665.162 302.195 665.033 302.12 664.911 302.038C664.804 301.966 664.695 301.896 664.59 301.819C664.454 301.718 664.317 301.615 664.182 301.504C664.066 301.41 663.954 301.31 663.844 301.208L660.928 282.808L673.708 280.782L676.5 298.395C676.442 298.542 676.378 298.687 676.31 298.828C676.255 298.937 676.2 299.044 676.139 299.148C675.875 299.646 675.56 300.11 675.199 300.529C675.092 300.659 674.978 300.781 674.859 300.905L674.859 300.907ZM668.298 303.245C668.557 303.278 668.818 303.297 669.079 303.294C668.817 303.292 668.557 303.275 668.298 303.245Z" fill="#0A131D"/>
<path d="M670.732 303.705C670.662 303.718 670.59 303.732 670.511 303.743C670.361 303.768 670.212 303.788 670.063 303.802C669.958 303.813 669.852 303.822 669.744 303.828C669.546 303.843 669.342 303.852 669.139 303.852C669.042 303.848 668.951 303.849 668.862 303.841C668.792 303.841 668.711 303.837 668.635 303.832C668.573 303.827 668.516 303.824 668.456 303.817C668.372 303.811 668.28 303.801 668.19 303.791C668.111 303.784 668.029 303.775 667.946 303.758C667.877 303.747 667.811 303.738 667.747 303.725C667.679 303.719 667.599 303.702 667.52 303.684L667.321 303.644C667.218 303.622 667.114 303.599 667.01 303.567L666.933 303.544C666.821 303.514 666.708 303.481 666.599 303.442C666.56 303.431 666.511 303.413 666.46 303.396C666.366 303.367 666.269 303.332 666.176 303.293C666.157 303.291 666.12 303.277 666.088 303.261C665.982 303.224 665.871 303.173 665.758 303.124C665.618 303.064 665.483 302.998 665.35 302.926C665.1 302.804 664.851 302.657 664.587 302.484C664.535 302.451 664.484 302.418 664.437 302.383C664.346 302.323 664.25 302.255 664.163 302.188C664.064 302.115 663.965 302.037 663.867 301.959C663.714 301.838 663.566 301.702 663.424 301.57L663.329 301.486L663.32 301.44L660.296 282.349L674.177 280.147L677.079 298.461L677.042 298.551C676.927 298.837 676.796 299.115 676.638 299.406C676.625 299.435 676.607 299.465 676.589 299.498C676.572 299.525 676.556 299.555 676.543 299.584C676.48 299.692 676.421 299.793 676.354 299.891C675.964 300.519 675.49 301.095 674.949 301.596C674.84 301.701 674.72 301.806 674.578 301.921C674.321 302.134 674.078 302.312 673.832 302.472C673.732 302.539 673.634 302.599 673.532 302.656C673.448 302.708 673.356 302.76 673.267 302.811C673.155 302.872 673.045 302.93 672.93 302.986L672.869 303.016C672.736 303.077 672.6 303.14 672.463 303.194C672.319 303.253 672.17 303.315 672.019 303.367L671.974 303.383C671.85 303.422 671.727 303.464 671.597 303.501C671.55 303.517 671.496 303.533 671.442 303.543C671.326 303.577 671.188 303.613 671.018 303.65C670.931 303.671 670.836 303.689 670.735 303.708L670.732 303.705ZM663.566 301.352L663.585 301.367C663.736 301.505 663.88 301.636 664.025 301.754C664.119 301.83 664.216 301.906 664.315 301.978C664.402 302.045 664.491 302.109 664.582 302.17C664.632 302.206 664.68 302.237 664.726 302.269C664.981 302.436 665.224 302.578 665.465 302.697C665.595 302.766 665.724 302.828 665.847 302.883C665.966 302.936 666.071 302.983 666.18 303.025C666.21 303.038 666.233 303.047 666.252 303.052C666.356 303.094 666.447 303.125 666.538 303.154C666.587 303.172 666.63 303.188 666.675 303.198C666.789 303.239 666.894 303.27 667.003 303.298L667.08 303.322C667.172 303.347 667.271 303.372 667.368 303.392L667.568 303.432C667.64 303.448 667.71 303.462 667.783 303.47C667.858 303.483 667.918 303.493 667.976 303.502C668.067 303.52 668.141 303.527 668.214 303.533C668.302 303.543 668.389 303.554 668.476 303.559C668.536 303.567 668.59 303.57 668.641 303.572C668.717 303.576 668.789 303.579 668.865 303.581C668.959 303.588 669.045 303.588 669.128 303.592C669.329 303.592 669.528 303.585 669.72 303.568C669.826 303.565 669.926 303.554 670.026 303.544C670.172 303.528 670.316 303.509 670.462 303.488C670.649 303.459 670.804 303.428 670.95 303.395C671.112 303.36 671.247 303.327 671.371 303.288C671.426 303.278 671.469 303.265 671.506 303.253C671.638 303.215 671.76 303.177 671.88 303.136C671.89 303.131 671.915 303.122 671.941 303.117C672.067 303.072 672.211 303.014 672.352 302.956C672.487 302.901 672.618 302.843 672.745 302.782C672.748 302.781 672.762 302.773 672.78 302.765L672.804 302.752C672.915 302.7 673.022 302.643 673.126 302.586C673.211 302.538 673.298 302.488 673.384 302.434C673.486 302.378 673.579 302.318 673.675 302.258C673.912 302.105 674.15 301.93 674.398 301.724C674.535 301.613 674.648 301.515 674.755 301.412C675.28 300.925 675.738 300.368 676.12 299.755C676.188 299.657 676.242 299.562 676.297 299.469C676.309 299.445 676.327 299.412 676.343 299.383C676.359 299.356 676.375 299.326 676.389 299.297C676.542 299.012 676.671 298.74 676.783 298.462L676.792 298.439L673.943 280.457L660.581 282.574L663.559 301.358L663.566 301.352ZM670.661 303.291C670.588 303.304 670.519 303.317 670.446 303.328C669.999 303.399 669.54 303.43 669.079 303.427C668.831 303.427 668.571 303.411 668.282 303.376C667.199 303.26 666.17 302.925 665.22 302.384C665.09 302.311 664.957 302.232 664.835 302.15C664.726 302.076 664.616 302.006 664.511 301.929C664.373 301.829 664.233 301.723 664.097 301.609C663.98 301.513 663.865 301.411 663.753 301.307L663.72 301.275L663.712 301.231L660.775 282.701L673.815 280.633L676.632 298.413L676.62 298.447C676.562 298.597 676.496 298.745 676.426 298.889C676.369 299.004 676.311 299.111 676.251 299.218C675.986 299.721 675.663 300.192 675.296 300.62C675.186 300.75 675.07 300.876 674.952 301.002C674.141 301.838 673.18 302.472 672.094 302.888C672.057 302.903 672.014 302.919 671.974 302.932C671.856 302.975 671.753 303.012 671.644 303.041C671.518 303.085 671.386 303.12 671.248 303.159C671.063 303.209 670.865 303.253 670.658 303.291L670.661 303.291ZM669.079 303.162C669.526 303.168 669.97 303.137 670.403 303.068C670.679 303.026 670.941 302.969 671.181 302.907C671.313 302.869 671.44 302.835 671.568 302.79C671.677 302.759 671.773 302.725 671.868 302.689C671.921 302.671 671.958 302.657 671.993 302.642C673.049 302.237 673.978 301.622 674.76 300.818C674.874 300.698 674.986 300.576 675.093 300.449C675.45 300.034 675.761 299.578 676.019 299.09C676.079 298.982 676.135 298.878 676.187 298.77C676.247 298.647 676.306 298.513 676.359 298.38L673.594 280.93L661.074 282.914L663.963 301.14C664.059 301.229 664.158 301.318 664.259 301.401C664.391 301.51 664.528 301.613 664.661 301.709C664.763 301.784 664.869 301.855 664.975 301.924C665.094 302.003 665.22 302.079 665.346 302.149C666.263 302.676 667.258 302.998 668.305 303.11C668.319 303.112 668.332 303.113 668.346 303.115C668.57 303.141 668.797 303.155 669.041 303.159C669.041 303.159 669.043 303.158 669.046 303.158C669.051 303.157 669.054 303.156 669.059 303.155C669.064 303.154 669.067 303.154 669.072 303.153L669.079 303.162Z" fill="#0A131D"/>
<path d="M675.829 294.185L676.497 298.398C676.439 298.545 676.375 298.69 676.307 298.831C676.252 298.94 676.197 299.046 676.136 299.151C675.872 299.649 675.557 300.113 675.196 300.532C675.088 300.662 674.975 300.784 674.856 300.908C674.069 301.718 673.114 302.351 672.044 302.764C671.999 302.783 671.954 302.799 671.911 302.813C671.811 302.85 671.713 302.884 671.609 302.914C671.478 302.959 671.349 302.996 671.213 303.032C670.954 303.101 670.688 303.155 670.424 303.198C669.977 303.27 669.525 303.3 669.078 303.294C668.816 303.291 668.556 303.275 668.297 303.245C667.236 303.13 666.216 302.802 665.286 302.268C665.158 302.195 665.034 302.119 664.907 302.038C664.801 301.967 664.691 301.896 664.586 301.819C664.45 301.718 664.314 301.615 664.178 301.504C664.062 301.41 663.95 301.311 663.84 301.208L662.05 289.908C663.151 289.588 664.167 288.965 665.027 288.195C665.875 287.44 666.588 286.555 667.243 285.625C667.653 286.429 668.168 287.163 668.765 287.809C669.961 290.27 672.153 293.379 675.829 294.185Z" fill="white"/>
<path d="M670.66 303.292C670.588 303.305 670.518 303.318 670.445 303.328C669.999 303.4 669.537 303.432 669.076 303.428C668.795 303.426 668.535 303.407 668.281 303.377C667.199 303.26 666.17 302.926 665.22 302.384C665.092 302.312 664.962 302.234 664.835 302.151C664.723 302.078 664.615 302.004 664.508 301.927C664.369 301.827 664.229 301.722 664.094 301.608C663.977 301.512 663.862 301.41 663.749 301.305L663.717 301.274L663.709 301.23L661.9 289.816L662.011 289.785C663.021 289.492 664.034 288.91 664.938 288.099C665.673 287.446 666.369 286.636 667.134 285.552L667.259 285.374L667.359 285.569C667.757 286.351 668.262 287.076 668.859 287.723L668.881 287.753C670.065 290.192 672.236 293.265 675.854 294.058L675.943 294.077L676.629 298.414L676.617 298.448C676.559 298.598 676.493 298.746 676.423 298.89C676.366 299.005 676.309 299.112 676.248 299.219C675.983 299.722 675.66 300.193 675.293 300.622C675.183 300.751 675.067 300.877 674.949 301.003C674.138 301.839 673.175 302.473 672.089 302.89C672.051 302.905 672.009 302.921 671.968 302.933C671.851 302.976 671.748 303.014 671.638 303.042C671.513 303.087 671.38 303.122 671.243 303.16C671.057 303.211 670.859 303.255 670.653 303.293L670.66 303.292ZM663.963 301.146C664.06 301.235 664.159 301.323 664.26 301.406C664.392 301.516 664.529 301.619 664.661 301.715C664.763 301.79 664.87 301.861 664.976 301.929C665.097 302.009 665.221 302.082 665.346 302.155C666.264 302.681 667.258 303.004 668.305 303.116C668.551 303.145 668.803 303.16 669.073 303.164C669.521 303.17 669.964 303.139 670.398 303.07C670.673 303.027 670.935 302.971 671.175 302.908C671.307 302.871 671.435 302.836 671.563 302.791C671.672 302.761 671.767 302.727 671.862 302.691C671.915 302.673 671.952 302.658 671.987 302.644C673.043 302.238 673.972 301.624 674.757 300.817C674.871 300.697 674.982 300.575 675.09 300.448C675.446 300.032 675.758 299.577 676.016 299.088C676.076 298.981 676.132 298.877 676.184 298.768C676.244 298.645 676.302 298.511 676.355 298.379L675.707 294.291C672.048 293.446 669.85 290.349 668.648 287.882C668.087 287.274 667.608 286.601 667.218 285.876C666.49 286.889 665.817 287.662 665.107 288.293C664.205 289.098 663.199 289.686 662.19 290L663.957 301.141L663.963 301.146Z" fill="#0A131D"/>
<path d="M667.677 284.997C667.683 285.018 667.687 285.036 667.693 285.056L667.65 285.04L667.384 284.934L667.272 284.89L667.335 284.823L667.561 284.572C667.561 284.572 667.598 284.729 667.677 284.997Z" fill="#1A1A1A"/>
<path d="M675.054 287.951L676.049 294.233C675.975 294.22 675.9 294.205 675.829 294.183C672.152 293.376 669.961 290.268 668.765 287.807C668.651 287.566 668.544 287.334 668.444 287.109C668.439 287.11 668.443 287.104 668.443 287.104C668.316 286.807 668.198 286.527 668.104 286.263C667.914 285.766 667.778 285.348 667.691 285.051L674.826 287.859L675.053 287.949L675.054 287.951Z" fill="#1A1A1A"/>
<path d="M684.077 279.571L682.267 279.859L682.713 282.674C683.313 286.455 680.815 289.991 677.14 290.574C672.076 291.377 667.303 287.808 666.48 282.606L663.78 265.569L672.101 263.333C675.246 262.834 680.349 267.735 680.861 270.966L681.415 274.459L684.528 278.245C684.969 278.707 684.711 279.47 684.082 279.57L684.077 279.571Z" fill="white"/>
<path d="M677.327 290.673C677.27 290.683 677.216 290.693 677.159 290.704C672.032 291.516 667.182 287.891 666.347 282.627L663.629 265.474L672.064 263.205C673.552 262.969 675.6 263.886 677.555 265.653C679.425 267.344 680.741 269.37 680.991 270.947L681.539 274.406L684.629 278.165C684.864 278.41 684.941 278.757 684.83 279.087C684.72 279.418 684.452 279.646 684.102 279.702L682.421 279.969L682.846 282.654C683.141 284.517 682.714 286.38 681.641 287.901C680.6 289.375 679.076 290.356 677.33 290.677L677.327 290.673ZM663.926 265.663L666.609 282.582C667.421 287.706 672.137 291.229 677.121 290.441C678.864 290.165 680.392 289.205 681.425 287.743C682.457 286.278 682.87 284.483 682.585 282.689L682.118 279.744L684.058 279.438C684.305 279.4 684.499 279.234 684.579 278.997C684.658 278.761 684.602 278.512 684.43 278.332L681.289 274.511L680.73 270.981C680.492 269.486 679.178 267.469 677.379 265.844C675.481 264.129 673.516 263.238 672.118 263.457L663.925 265.66L663.926 265.663Z" fill="#0A131D"/>
<path d="M684.685 278.112L682.126 274.993L681.612 274.369L681.068 270.93C680.908 269.917 680.316 268.748 679.478 267.633C678.936 266.91 678.287 266.206 677.589 265.575C675.814 263.975 673.687 262.864 672.046 263.123L665.157 264.976L663.537 265.411L666.268 282.634C666.439 283.707 666.773 284.709 667.246 285.621C667.655 286.425 668.17 287.159 668.767 287.806C670.45 289.629 672.785 290.773 675.31 290.881C675.38 290.887 675.453 290.889 675.524 290.887C675.524 290.887 675.525 290.892 675.528 290.892C675.598 290.892 675.67 290.892 675.742 290.895C676.213 290.894 676.695 290.856 677.175 290.781C680.962 290.18 683.543 286.53 682.926 282.64L682.512 280.03L684.115 279.775C684.484 279.718 684.787 279.464 684.903 279.106C685.025 278.752 684.938 278.367 684.687 278.109L684.685 278.112ZM684.499 278.975C684.431 279.182 684.262 279.326 684.044 279.36L682.023 279.681L682.503 282.707C683.082 286.364 680.66 289.803 677.104 290.366C676.621 290.442 676.144 290.479 675.671 290.478C675.599 290.478 675.527 290.478 675.456 290.472C675.451 290.473 675.453 290.467 675.453 290.467C675.381 290.47 675.308 290.467 675.238 290.461C672.331 290.307 669.684 288.706 668.105 286.268C667.887 285.939 667.692 285.593 667.519 285.232C667.471 285.131 667.423 285.033 667.383 284.931C667.36 284.895 667.348 284.857 667.334 284.822C667.038 284.128 666.822 283.393 666.695 282.614L664.016 265.721L664.564 265.575L672.128 263.541C674.286 263.2 677.455 265.56 679.267 268.073C679.997 269.077 680.508 270.108 680.65 270.999L681.212 274.547L681.725 275.171L682.194 275.742L682.195 275.748L684.371 278.394C684.52 278.551 684.571 278.769 684.5 278.977L684.499 278.975Z" fill="#0A131D" stroke="#0A131D" stroke-miterlimit="10"/>
<path d="M679.897 259.96C679.929 261.253 679.923 262.543 679.89 263.832C679.86 264.989 679.9 266.206 679.579 267.324C679.548 267.433 679.511 267.537 679.475 267.634C679.444 267.712 679.411 267.79 679.378 267.858C679.34 267.931 679.303 268.003 679.267 268.068C678.651 269.141 677.54 269.476 676.185 269.434C673.363 269.349 670.618 268.564 667.903 267.783C668.827 270.671 669.058 273.771 668.578 276.768C668.558 276.892 668.537 277.021 668.514 277.148C668.495 277.261 668.472 277.367 668.455 277.48C668.444 277.533 668.433 277.591 668.422 277.646C668.411 277.707 668.396 277.766 668.386 277.829L668.387 277.834C668.361 277.97 668.338 278.108 668.319 278.248C668.237 278.79 668.2 279.333 668.315 279.868C668.401 280.277 668.574 280.665 668.713 281.062C668.721 281.09 668.734 281.114 668.742 281.142C668.765 281.21 668.788 281.275 668.806 281.344C668.829 281.412 668.846 281.478 668.859 281.548C668.887 281.655 668.905 281.767 668.92 281.882C668.937 282.06 668.933 282.238 668.911 282.41C668.906 282.499 668.89 282.588 668.869 282.674C668.718 283.394 668.3 284.073 667.88 284.695C667.816 284.795 667.745 284.894 667.678 284.994C667.673 285.006 667.662 285.021 667.654 285.034C667.612 285.1 667.565 285.165 667.524 285.228C667.477 285.296 667.433 285.363 667.387 285.427C667.34 285.495 667.296 285.559 667.249 285.621C666.594 286.552 665.88 287.437 665.033 288.191C664.172 288.959 663.156 289.584 662.055 289.905C661.986 289.923 661.92 289.943 661.851 289.958C661.782 289.976 661.71 289.992 661.641 290.007C661.435 290.048 661.227 290.084 661.015 290.104C660.277 288.828 660.293 287.27 659.92 285.842C658.834 281.68 654.562 278.946 653.424 274.796C652.831 272.633 653.187 270.269 654.19 268.27C654.237 268.173 654.286 268.078 654.338 267.981C654.444 267.787 654.549 267.592 654.67 267.404C654.94 266.953 655.248 266.522 655.581 266.108C655.592 266.098 655.598 266.089 655.605 266.08C655.616 266.067 655.625 266.057 655.635 266.042C655.878 265.746 656.141 265.462 656.414 265.19C656.446 265.16 656.46 265.147 656.46 265.147C657.448 264.169 658.622 263.346 659.856 262.763C660.265 262.571 660.674 262.383 661.093 262.205C661.097 262.201 661.1 262.201 661.108 262.199C663.083 261.341 665.123 260.648 667.2 260.086C667.566 259.984 667.938 259.884 668.307 259.797C668.886 259.648 669.473 259.51 670.06 259.386C672.616 258.841 675.182 258.535 677.772 258.245C678.12 258.205 678.471 258.167 678.813 258.238C679.662 258.405 679.888 259.2 679.902 259.959L679.897 259.96Z" fill="black"/>
<path d="M679.106 275.503C679.624 275.408 679.967 274.911 679.872 274.392C679.776 273.874 679.279 273.531 678.76 273.627C678.242 273.722 677.899 274.219 677.995 274.738C678.09 275.256 678.588 275.599 679.106 275.503Z" fill="#1A1A1A"/>
<path d="M675.504 270.204L673.805 269.44L672.506 272.637C672.343 273.042 672.321 273.489 672.449 273.907L673.365 275.791L673.95 273.553L675.503 270.202L675.504 270.204Z" fill="black"/>
<g opacity="0.19">
<path d="M681.719 275.117C682.075 277.371 680.792 279.446 678.852 279.755C676.912 280.061 675.05 278.485 674.691 276.231C674.335 273.977 675.619 271.902 677.558 271.593C679.498 271.286 681.36 272.863 681.719 275.117Z" fill="white"/>
</g>
<path d="M678.918 280.171C676.752 280.513 674.668 278.777 674.276 276.297C673.883 273.816 675.326 271.52 677.493 271.177C679.659 270.835 681.742 272.571 682.134 275.051C682.527 277.531 681.084 279.828 678.918 280.171ZM677.625 272.011C675.918 272.282 674.788 274.144 675.109 276.165C675.43 278.185 677.079 279.608 678.786 279.337C680.492 279.066 681.622 277.203 681.301 275.183C680.98 273.163 679.331 271.74 677.625 272.011Z" fill="black"/>
<path d="M674.757 276.647L668.139 277.696C667.908 277.733 667.692 277.575 667.655 277.344C667.618 277.113 667.776 276.897 668.007 276.86L674.624 275.81C674.855 275.773 675.071 275.931 675.109 276.162C675.146 276.393 674.988 276.609 674.757 276.647Z" fill="black"/>
<path d="M669.001 282.362C668.8 282.476 668.588 282.601 668.367 282.633C668.087 282.709 667.789 282.702 667.506 282.65C666.812 282.521 666.174 282.136 665.623 281.709C664.401 280.763 663.288 279.38 662.871 277.869C662.665 277.124 662.658 276.246 663.265 275.68C664.145 274.855 665.272 274.693 666.314 275.311C667.261 275.872 667.961 276.828 668.386 277.83C668.689 278.546 668.795 279.323 668.859 280.095C668.915 280.779 668.898 281.63 669.191 282.26C669.129 282.29 669.066 282.326 669.003 282.361L669.001 282.362Z" fill="white"/>
<path d="M668.233 282.88C668.005 282.917 667.744 282.911 667.468 282.86C666.843 282.746 666.195 282.424 665.491 281.88C664.089 280.793 663.059 279.355 662.666 277.928C662.386 276.916 662.547 276.063 663.117 275.53C664.079 274.629 665.313 274.479 666.417 275.134C667.321 275.671 668.088 276.599 668.575 277.752C668.896 278.508 668.999 279.318 669.065 280.081C669.078 280.225 669.085 280.379 669.096 280.537C669.13 281.116 669.165 281.714 669.378 282.175C669.427 282.278 669.382 282.401 669.282 282.452C669.223 282.481 669.163 282.516 669.105 282.548L669.001 282.364L669.083 282.56C668.88 282.675 668.65 282.806 668.401 282.846C668.347 282.862 668.29 282.872 668.233 282.882L668.233 282.88ZM664.688 275.175C664.236 275.247 663.801 275.469 663.406 275.838C662.798 276.407 662.937 277.322 663.073 277.816C663.442 279.156 664.417 280.514 665.75 281.546C666.402 282.049 666.987 282.342 667.544 282.445C667.826 282.498 668.084 282.493 668.311 282.433C668.505 282.399 668.692 282.296 668.874 282.193L668.896 282.181C668.903 282.177 668.913 282.172 668.92 282.168C668.74 281.669 668.705 281.085 668.675 280.561C668.666 280.408 668.657 280.26 668.647 280.118C668.585 279.391 668.486 278.621 668.189 277.919C667.735 276.848 667.029 275.989 666.204 275.5C665.706 275.204 665.189 275.098 664.688 275.177L664.688 275.175Z" fill="#0A131D"/>
<path d="M664.733 277.683C664.733 277.683 666.333 276.897 667.892 279.005L664.733 277.683Z" fill="white"/>
<path d="M667.924 279.213C667.849 279.227 667.769 279.197 667.722 279.13C666.294 277.199 664.885 277.846 664.825 277.873C664.72 277.921 664.594 277.878 664.543 277.775C664.491 277.669 664.535 277.544 664.638 277.493C664.655 277.484 666.416 276.652 668.06 278.878C668.131 278.972 668.11 279.104 668.015 279.173C667.987 279.194 667.955 279.205 667.924 279.211L667.924 279.213Z" fill="#0A131D"/>
<path d="M666.895 278.01C666.895 278.01 665.207 279.208 666.634 280.381L666.895 278.01Z" fill="white"/>
<path d="M666.667 280.588C666.61 280.599 666.548 280.584 666.501 280.542C666.054 280.175 665.836 279.76 665.852 279.314C665.883 278.477 666.737 277.86 666.775 277.834C666.869 277.766 667.002 277.79 667.07 277.884C667.138 277.979 667.115 278.111 667.02 278.179C667.013 278.183 666.296 278.703 666.275 279.332C666.266 279.641 666.433 279.939 666.77 280.217C666.861 280.291 666.872 280.425 666.798 280.514C666.762 280.555 666.716 280.579 666.667 280.588Z" fill="#0A131D"/>
<path d="M668.311 259.772C667.7 261.362 666.91 262.882 665.837 264.196C663.807 266.684 660.837 268.757 657.481 268.401C655.71 268.219 654.658 267.427 654.658 267.427C654.719 266.956 656.452 265.148 656.452 265.148C656.906 265.597 657.519 266.01 658.16 266.106C659.572 266.317 660.931 265.583 662.034 264.776C663.511 263.697 664.9 262.444 666.072 261.039C666.206 260.881 666.518 260.3 666.702 260.239C667.26 260.059 667.798 259.904 668.308 259.77L668.311 259.772Z" fill="#254A78"/>
<path d="M662.702 267.105C662.632 267.147 662.559 267.187 662.487 267.227C662.554 267.185 662.618 267.141 662.682 267.098L662.699 267.105L662.702 267.105Z" fill="#254A78"/>
<path d="M676.655 298.016L676.523 298.342C676.518 298.359 676.508 298.377 676.497 298.395C676.439 298.542 676.375 298.688 676.307 298.828C676.252 298.937 676.197 299.044 676.136 299.149C675.872 299.646 675.557 300.11 675.196 300.53C675.089 300.659 674.975 300.782 674.856 300.905C674.07 301.715 673.114 302.348 672.044 302.762C671.999 302.781 671.954 302.797 671.911 302.81C671.811 302.847 671.713 302.881 671.609 302.911C671.478 302.957 671.349 302.994 671.214 303.029C670.954 303.098 670.688 303.153 670.424 303.196C669.977 303.267 669.526 303.297 669.078 303.291C668.816 303.291 668.556 303.272 668.297 303.243C667.236 303.128 666.216 302.8 665.286 302.265C665.158 302.192 665.034 302.116 664.907 302.035C664.799 301.967 664.692 301.896 664.586 301.817C664.45 301.716 664.314 301.613 664.178 301.501C664.062 301.408 663.95 301.308 663.841 301.205C663.82 301.193 663.803 301.175 663.783 301.157L663.589 300.974L663.335 300.737L664.096 305.542L664.145 305.592C666.028 307.487 668.727 308.37 671.363 307.952C674.136 307.511 676.487 305.718 677.647 303.16L677.673 303.099L676.807 297.635L676.654 298.014L676.655 298.016ZM677.235 303.044C676.129 305.442 673.909 307.12 671.297 307.534C668.816 307.926 666.279 307.11 664.498 305.345L663.944 301.857C664.042 301.935 664.138 302.011 664.237 302.084C664.325 302.151 664.414 302.217 664.511 302.279C664.558 302.314 664.606 302.345 664.655 302.379C664.898 302.537 665.15 302.683 665.409 302.815C665.536 302.882 665.668 302.946 665.796 303.002C665.91 303.054 666.021 303.103 666.138 303.145C666.164 303.157 666.193 303.17 666.224 303.175C666.313 303.212 666.408 303.245 666.501 303.276C666.547 303.292 666.596 303.31 666.641 303.323C666.747 303.362 666.857 303.393 666.972 303.422C666.998 303.431 667.017 303.435 667.043 303.444C667.144 303.473 667.245 303.498 667.345 303.517C667.412 303.531 667.478 303.543 667.545 303.557C667.62 303.573 667.695 303.591 667.774 303.598C667.841 303.612 667.907 303.622 667.973 303.631C668.05 303.646 668.13 303.656 668.208 303.662C668.296 303.673 668.386 303.683 668.475 303.688C668.533 303.696 668.589 303.699 668.646 303.702C668.719 303.707 668.797 303.709 668.872 303.711C668.961 303.716 669.05 303.719 669.138 303.721C669.339 303.722 669.541 303.714 669.738 303.699C669.842 303.696 669.945 303.688 670.049 303.674C670.196 303.658 670.342 303.639 670.49 303.617C670.659 303.591 670.825 303.561 670.986 303.523C671.13 303.491 671.273 303.457 671.415 303.414C671.462 303.406 671.508 303.392 671.555 303.375C671.682 303.339 671.806 303.3 671.927 303.259C671.942 303.253 671.956 303.245 671.969 303.243C672.117 303.192 672.267 303.132 672.408 303.074C672.545 303.019 672.676 302.958 672.807 302.899C672.826 302.888 672.844 302.882 672.865 302.87C672.979 302.817 673.085 302.757 673.192 302.7C673.282 302.649 673.369 302.601 673.458 302.544C673.557 302.488 673.653 302.428 673.751 302.365C674.006 302.2 674.25 302.016 674.487 301.82C674.613 301.72 674.733 301.617 674.851 301.502C675.381 301.012 675.848 300.444 676.236 299.82C676.301 299.725 676.358 299.626 676.415 299.53C676.446 299.468 676.481 299.411 676.51 299.35C676.549 299.286 676.578 299.222 676.614 299.157L677.231 303.047L677.235 303.044Z" fill="#0A131D"/>
<path d="M676.619 299.153L677.236 303.044C676.13 305.442 673.91 307.12 671.297 307.534C668.817 307.926 666.28 307.11 664.498 305.345L663.945 301.857C664.042 301.935 664.139 302.011 664.238 302.084C664.325 302.151 664.415 302.217 664.512 302.279C664.558 302.314 664.607 302.345 664.656 302.379C664.902 302.542 665.15 302.686 665.409 302.814C665.537 302.882 665.669 302.946 665.797 303.002C665.91 303.054 666.021 303.103 666.138 303.145C666.165 303.157 666.194 303.17 666.224 303.175C666.314 303.212 666.408 303.245 666.502 303.276C666.548 303.292 666.596 303.31 666.641 303.323C666.748 303.362 666.857 303.393 666.973 303.422C666.998 303.431 667.018 303.435 667.043 303.444C667.145 303.473 667.246 303.498 667.345 303.517C667.412 303.531 667.479 303.543 667.545 303.557C667.62 303.573 667.696 303.591 667.775 303.598C667.841 303.612 667.907 303.622 667.973 303.631C668.051 303.646 668.13 303.656 668.209 303.662C668.296 303.673 668.386 303.683 668.475 303.688C668.533 303.696 668.59 303.699 668.646 303.702C668.72 303.707 668.797 303.709 668.873 303.711C668.962 303.716 669.05 303.719 669.139 303.721C669.34 303.722 669.541 303.714 669.739 303.699C669.843 303.696 669.945 303.688 670.05 303.674C670.196 303.658 670.343 303.639 670.491 303.617C670.66 303.591 670.825 303.56 670.987 303.523C671.131 303.491 671.274 303.457 671.416 303.414C671.462 303.406 671.508 303.392 671.556 303.375C671.683 303.339 671.806 303.3 671.927 303.259C671.942 303.253 671.957 303.245 671.97 303.243C672.118 303.192 672.267 303.132 672.409 303.074C672.546 303.019 672.676 302.958 672.807 302.899C672.826 302.888 672.844 302.882 672.866 302.87C672.979 302.817 673.086 302.757 673.193 302.7C673.282 302.649 673.37 302.601 673.458 302.544C673.557 302.488 673.653 302.428 673.751 302.365C674.007 302.2 674.251 302.016 674.488 301.82C674.613 301.719 674.734 301.617 674.851 301.502C675.381 301.012 675.849 300.444 676.236 299.82C676.302 299.725 676.358 299.626 676.416 299.53C676.447 299.468 676.482 299.411 676.511 299.35C676.55 299.286 676.578 299.222 676.614 299.157L676.619 299.153Z" fill="white"/>
<path d="M679.418 281.936C679.418 281.936 680.22 282.371 682.106 282.072L679.418 281.936Z" fill="white"/>
<path d="M681.929 286.386C681.528 286.807 680.972 286.977 679.879 287.301C678.001 287.857 677.061 288.135 676.631 287.746C675.868 287.055 676.683 284.836 677.698 283.495C678.247 282.771 679.177 281.539 680.481 281.665C681.455 281.759 682.21 282.568 682.529 283.354C682.985 284.481 682.591 285.698 681.927 286.389L681.929 286.386Z" fill="#0A131D"/>
<path d="M675.77 368.035L647.967 358.039L648.438 354.296L676.934 364.485L675.77 368.035Z" fill="#0A131D"/>
<path d="M661.648 308.55L695.957 276.358C695.971 276.345 695.985 276.334 695.999 276.321C696.106 276.208 696.227 276.095 696.346 275.985L726.125 249.213C726.125 249.213 725.646 248.267 725.926 246.446C726.136 245.117 726.727 243.872 727.559 242.815L729.679 240.103C729.946 239.762 730.415 239.655 730.807 239.842C731.174 240.017 731.377 240.408 731.322 240.808L730.861 243.953C732.724 241.705 737.679 235.584 739.349 236.613C741.116 237.707 741.798 242.05 737.868 247.448C734.826 251.627 731.122 253.794 731.122 253.794L731.058 253.854L704.588 284.173C704.34 284.454 704.072 284.709 703.783 284.928C700.066 288.985 694.258 295.33 688.464 301.666" fill="white"/>
<path d="M685.431 401.899C685.062 401.885 682.533 381.663 691.073 359.921C694.61 350.916 699.154 343.919 699.464 344.071C699.843 344.254 693.602 354.905 689.478 369.829C684.341 388.419 685.732 401.913 685.431 401.901L685.431 401.899Z" fill="#D8E2F3"/>
<path d="M692.448 394.26C692.221 394.248 690.473 381.199 695.52 367.275C697.612 361.508 700.34 357.046 700.533 357.146C700.768 357.268 697.028 364.069 694.633 373.641C691.649 385.565 692.634 394.271 692.448 394.26Z" fill="#D8E2F3"/>
<path d="M741.577 237.956C741.794 239.066 741.963 242.106 738.846 246.386C735.876 250.466 732.218 252.636 732.183 252.659L732.153 252.675L732.051 252.774L705.584 283.092C705.342 283.363 705.085 283.606 704.818 283.81L704.784 283.843C701.089 287.877 695.323 294.174 689.563 300.476L664.116 306.826L697.349 275.643L697.39 275.603C697.493 275.493 697.607 275.387 697.721 275.283L727.501 248.511L727.652 248.374L727.563 248.193C727.563 248.193 727.128 247.284 727.388 245.587C727.582 244.362 728.126 243.15 728.966 242.078L731.087 239.368C731.275 239.128 731.611 239.05 731.887 239.184C732.144 239.307 732.291 239.582 732.25 239.868L731.651 243.96L732.517 242.916C734.122 240.977 739.002 235.076 740.403 235.938C740.973 236.29 741.391 237.007 741.577 237.956Z" fill="white"/>
<path d="M662.775 307.57L662.662 307.449L662.73 307.386L662.775 307.57Z" fill="#0A131D"/>
<path d="M663.331 307.561L663.031 307.844L662.874 307.675L663.331 307.561Z" fill="#0A131D"/>
<path d="M689.865 300.941L689.863 300.944L689.86 300.942L689.865 300.941Z" fill="#0A131D"/>
<path d="M759.05 312.241L758.981 312.259L758.951 312.136L759.05 312.241Z" fill="#0A131D"/>
<path d="M759.216 311.66L758.906 311.952L758.856 311.75L759.216 311.66Z" fill="#0A131D"/>
<path d="M741.461 236.232C741.76 236.667 741.981 237.216 742.106 237.854C742.594 240.343 741.565 243.569 739.285 246.704C736.385 250.685 732.841 252.89 732.487 253.105L732.446 253.145L705.994 283.444C705.733 283.741 705.457 284 705.172 284.221C701.455 288.278 695.653 294.613 689.868 300.941L689.47 300.578C695.264 294.241 701.072 287.896 704.789 283.839L704.824 283.809C705.088 283.605 705.346 283.363 705.589 283.088L732.057 252.773L732.159 252.674L732.186 252.658C732.222 252.636 735.88 250.466 738.849 246.386C741.967 242.105 741.797 239.065 741.58 237.956C741.395 237.006 740.977 236.289 740.407 235.937C739.005 235.075 734.125 240.974 732.523 242.913L731.656 243.957L732.256 239.864C732.294 239.579 732.147 239.304 731.892 239.18C731.616 239.046 731.278 239.125 731.092 239.365L728.972 242.077C728.132 243.149 727.585 244.361 727.394 245.586C727.131 247.281 727.564 248.182 727.568 248.189L727.658 248.373L727.507 248.51L697.727 275.282C697.613 275.386 697.499 275.492 697.396 275.602L697.355 275.642L663.037 307.843L662.668 307.451L697.007 275.232C697.119 275.116 697.242 274.999 697.368 274.885L727.008 248.239C726.874 247.86 726.642 246.935 726.863 245.504C727.07 244.189 727.654 242.889 728.55 241.749L730.671 239.036C731.012 238.599 731.625 238.457 732.127 238.698C732.596 238.925 732.864 239.423 732.791 239.942L732.469 242.14C735.866 238.061 739.163 234.538 740.692 235.481C740.987 235.662 741.245 235.919 741.464 236.235L741.461 236.232Z" fill="#0A131D"/>
<path d="M661.027 305.871C658.248 310.52 659.762 316.541 664.411 319.32C668.535 321.787 673.735 320.868 676.798 317.383L676.804 317.387C681.578 311.957 686.355 306.526 691.129 301.096C689.739 301.055 685.549 300.752 681.599 297.632C677.853 294.676 676.541 290.932 676.137 289.577C671.728 294.247 667.322 298.915 662.913 303.586C662.19 304.232 661.553 304.993 661.027 305.871Z" fill="#254A78"/>
<path d="M676.178 289.818C677.245 290.809 678.315 291.919 679.442 293.203C679.699 293.498 679.954 293.793 680.209 294.091C681.478 295.568 682.793 297.093 684.446 298.304C684.619 298.43 684.797 298.555 684.976 298.671C687.124 300.088 689.654 300.868 691.937 300.841L690.769 301.858C688.42 302.135 685.657 301.401 683.363 299.885C683.196 299.774 683.03 299.66 682.87 299.543C681.297 298.391 680.018 296.903 678.777 295.461C678.522 295.163 678.264 294.863 678.007 294.568C676.862 293.261 675.773 292.133 674.684 291.122L676.181 289.818L676.178 289.818Z" fill="white"/>
<path d="M683.22 300.098L683.501 299.675C683.339 299.568 683.18 299.458 683.026 299.345C681.496 298.223 680.232 296.753 679.008 295.332C678.756 295.039 678.494 294.734 678.234 294.438C677.164 293.215 676.142 292.147 675.123 291.185L676.231 290.22C677.204 291.139 678.184 292.164 679.21 293.336C679.467 293.628 679.725 293.928 679.974 294.222C681.26 295.717 682.589 297.263 684.285 298.504C684.464 298.634 684.648 298.763 684.834 298.887C686.775 300.168 689.018 300.944 691.129 301.099L690.567 301.587C688.318 301.83 685.689 301.122 683.501 299.677L683.221 300.1M683.221 300.1C685.612 301.678 688.517 302.445 690.963 302.131L692.851 300.493C690.406 300.804 687.502 300.039 685.114 298.464C684.941 298.349 684.769 298.23 684.602 298.109C682.666 296.69 681.211 294.83 679.672 293.074C678.563 291.809 677.39 290.578 676.124 289.424L674.24 291.067C675.502 292.217 676.672 293.445 677.778 294.706C679.318 296.465 680.775 298.327 682.712 299.745C682.878 299.867 683.05 299.987 683.223 300.1L683.221 300.1Z" fill="#0A131D"/>
<g clip-path="url(#clip0_1_363)">
<path d="M523.349 548.12C521.578 549.371 519.122 548.949 518.06 547.21L513.68 541.012L530.947 528.811L535.327 535.01C536.578 536.781 536.156 539.237 534.418 540.299L530.433 543.114L535.125 549.756L532.026 551.945L527.334 545.304L523.349 548.12ZM514.277 535.28L517.376 533.09L512.996 526.892L517.645 523.607L522.025 529.805L525.124 527.616L520.745 521.417L523.876 519.038L519.497 512.84C518.245 511.069 515.79 510.647 514.208 511.931L510.969 514L505.5 505.001L500.999 507L503.5 513L505.5 517.5L503.139 519.751C501.368 521.003 500.946 523.458 502.229 525.04L506.609 531.239L509.708 529.049L514.277 535.28Z" fill="#3F6693"/>
</g>
<path d="M453.406 570.161C451.543 558.713 450.622 545.416 450.622 530.134V450.35C450.622 416.866 455.034 392.896 464.117 377.071C473.85 360.106 489.395 351.86 511.636 351.86C533.876 351.86 549.421 360.106 559.157 377.071C568.24 392.896 572.652 416.866 572.652 450.35V530.134C572.652 545.416 571.731 558.713 569.867 570.161H576.035C577.854 558.585 578.752 545.282 578.752 530.134V450.35C578.752 415.775 574.075 390.812 564.447 374.039C559.113 364.743 552.068 357.663 543.507 352.988C534.718 348.195 523.993 345.76 511.636 345.76C499.278 345.76 488.558 348.195 479.764 352.988C471.203 357.66 464.158 364.743 458.824 374.039C449.199 390.812 444.521 415.772 444.521 450.35V530.134C444.521 545.282 445.42 558.585 447.239 570.161H453.409H453.406Z" fill="#3F6693"/>
<path d="M359.291 570.162C354.512 546.466 352.103 519.794 352.103 490.241C352.103 429.475 362.303 380.673 382.429 345.197C392.597 327.276 405.445 312.585 420.62 301.536C436.06 290.292 454.296 282.539 474.81 278.497C486.258 276.24 498.648 275.1 511.633 275.1C538.416 275.1 562.222 279.949 582.395 289.517C602.072 298.851 618.737 312.891 631.926 331.247C657.965 367.481 671.169 420.975 671.169 490.238C671.169 519.788 668.76 546.463 663.981 570.159H670.192C674.895 546.356 677.266 519.683 677.266 490.238C677.266 419.668 663.681 364.979 636.88 327.687C608.892 288.744 566.754 269 511.63 269C498.252 269 485.462 270.181 473.626 272.514C431.065 280.897 398.592 304.339 377.122 342.185C356.468 378.591 346 428.402 346 490.238C346 519.68 348.371 546.353 353.074 570.159H359.285L359.291 570.162Z" fill="#3F6693"/>
<path d="M447.239 570.162C445.419 558.586 444.521 545.283 444.521 530.134V450.351C444.521 415.773 449.199 390.812 458.824 374.04C464.158 364.743 471.202 357.663 479.764 352.989C488.555 348.195 499.277 345.76 511.635 345.76C523.993 345.76 534.715 348.195 543.507 352.989C552.068 357.661 559.113 364.743 564.447 374.04C574.075 390.812 578.752 415.776 578.752 450.351V530.134C578.752 545.283 577.854 558.586 576.035 570.162H663.983C668.763 546.467 671.171 519.794 671.171 490.241C671.171 420.978 657.968 367.484 631.928 331.251C618.739 312.894 602.074 298.857 582.397 289.52C562.225 279.953 538.419 275.104 511.635 275.104C498.651 275.104 486.261 276.244 474.812 278.501C454.296 282.542 436.062 290.293 420.622 301.54C405.45 312.588 392.6 327.279 382.432 345.201C362.306 380.676 352.105 429.475 352.105 490.244C352.105 519.794 354.514 546.47 359.293 570.165H447.239V570.162Z" fill="white"/>
<path d="M888.49 573.103C856.95 575.249 829.262 569.457 805.424 555.726C781.71 541.986 762.693 520.982 748.375 492.714C734.179 464.438 725.668 429.806 722.843 388.821C719.904 347.966 723.449 312.713 733.478 283.062C743.629 253.401 759.47 230.258 781 213.631C802.644 196.874 829.171 187.365 860.58 185.106C891.989 182.846 919.542 188.465 943.24 201.961C967.059 215.448 986.115 236.142 1000.41 264.044C1014.69 291.825 1023.24 326.146 1026.06 367.01C1029.01 408.108 1025.43 443.671 1015.3 473.697C1005.3 503.714 989.548 527.219 968.043 544.212C946.539 561.205 920.021 570.835 888.49 573.103ZM883.766 507.431C905.276 505.884 921.67 493.855 932.95 471.346C944.23 448.837 948.256 416.001 945.028 372.838C942.984 344.423 938.349 320.975 931.123 302.494C924.019 284.004 914.809 270.386 903.492 261.638C892.297 252.882 879.55 249.018 865.251 250.046C843.864 251.585 827.522 263.487 816.224 285.752C804.927 308.017 800.748 340.435 803.688 383.006C805.758 411.787 810.358 435.605 817.488 454.461C824.732 473.186 834.017 486.983 845.342 495.852C856.659 504.6 869.467 508.459 883.766 507.431Z" fill="#254977"/>
<path d="M877.518 573.892C845.978 576.039 818.29 570.246 794.453 556.515C770.738 542.775 751.721 521.771 737.403 493.504C723.207 465.227 714.697 430.596 711.871 389.61C708.933 348.756 712.478 313.503 722.506 283.851C732.657 254.191 748.498 231.047 770.029 214.42C791.673 197.663 818.199 188.154 849.608 185.895C881.017 183.636 908.57 189.254 932.268 202.75C956.087 216.237 975.143 236.932 989.435 264.834C1003.72 292.614 1012.27 326.936 1015.08 367.799C1018.04 408.898 1014.46 444.46 1004.33 474.486C994.329 504.504 978.576 528.009 957.072 545.001C935.567 561.994 909.05 571.624 877.518 573.892ZM872.794 508.22C894.304 506.673 910.699 494.645 921.978 472.136C933.258 449.627 937.284 416.791 934.056 373.628C932.012 345.212 927.377 321.764 920.151 303.283C913.047 284.794 903.837 271.175 892.52 262.427C881.326 253.671 868.579 249.807 854.28 250.836C832.892 252.374 816.55 264.276 805.253 286.541C793.955 308.806 789.777 341.224 792.716 383.795C794.786 412.576 799.387 436.394 806.517 455.25C813.76 473.975 823.045 487.772 834.371 496.642C845.687 505.389 858.495 509.249 872.794 508.22Z" fill="#3F6693"/>
<path d="M447 455.445C455.24 450.582 472.438 443.772 475.304 455.445C478.887 470.037 457.748 491.151 475.304 492.035C492.86 492.92 498.118 493.871 506 512" stroke="#3F6693" stroke-width="5"/>
<path d="M1074.33 568.174H50.9417V573.422H1074.33V568.174Z" fill="#254977"/>
<defs>
<clipPath id="clip0_1_363">
<rect width="71.2879" height="85.6306" fill="white" transform="translate(584.51 515.222) rotate(96.8555)"/>
</clipPath>
</defs>
</svg>
