<svg width="15" height="15" viewBox="0 0 15 15" fill="none" xmlns="http://www.w3.org/2000/svg">
<path d="M7.5 0C6.01664 0 4.5666 0.439867 3.33323 1.26398C2.09986 2.08809 1.13856 3.25943 0.570907 4.62987C0.00324963 6.00032 -0.145275 7.50832 0.144114 8.96318C0.433503 10.418 1.14781 11.7544 2.1967 12.8033C3.2456 13.8522 4.58197 14.5665 6.03683 14.8559C7.49168 15.1453 8.99968 14.9968 10.3701 14.4291C11.7406 13.8614 12.9119 12.9001 13.736 11.6668C14.5601 10.4334 15 8.98336 15 7.5C15 6.51509 14.806 5.53982 14.4291 4.62987C14.0522 3.71993 13.4997 2.89314 12.8033 2.1967C12.1069 1.50026 11.2801 0.947814 10.3701 0.570904C9.46019 0.193993 8.48492 0 7.5 0ZM7.5 13.5C6.31332 13.5 5.15328 13.1481 4.16658 12.4888C3.17989 11.8295 2.41085 10.8925 1.95673 9.7961C1.5026 8.69974 1.38378 7.49334 1.61529 6.32946C1.8468 5.16557 2.41825 4.09647 3.25736 3.25736C4.09648 2.41824 5.16558 1.8468 6.32946 1.61529C7.49335 1.38378 8.69975 1.5026 9.7961 1.95672C10.8925 2.41085 11.8295 3.17988 12.4888 4.16658C13.1481 5.15327 13.5 6.31331 13.5 7.5C13.5 9.0913 12.8679 10.6174 11.7426 11.7426C10.6174 12.8679 9.0913 13.5 7.5 13.5ZM10.5 6.75H8.25V4.5C8.25 4.30109 8.17099 4.11032 8.03033 3.96967C7.88968 3.82902 7.69892 3.75 7.5 3.75C7.30109 3.75 7.11033 3.82902 6.96967 3.96967C6.82902 4.11032 6.75 4.30109 6.75 4.5V6.75H4.5C4.30109 6.75 4.11033 6.82902 3.96967 6.96967C3.82902 7.11032 3.75 7.30109 3.75 7.5C3.75 7.69891 3.82902 7.88968 3.96967 8.03033C4.11033 8.17098 4.30109 8.25 4.5 8.25H6.75V10.5C6.75 10.6989 6.82902 10.8897 6.96967 11.0303C7.11033 11.171 7.30109 11.25 7.5 11.25C7.69892 11.25 7.88968 11.171 8.03033 11.0303C8.17099 10.8897 8.25 10.6989 8.25 10.5V8.25H10.5C10.6989 8.25 10.8897 8.17098 11.0303 8.03033C11.171 7.88968 11.25 7.69891 11.25 7.5C11.25 7.30109 11.171 7.11032 11.0303 6.96967C10.8897 6.82902 10.6989 6.75 10.5 6.75Z" fill="#1766D6"/>
</svg>
