<svg width="24" height="24" viewBox="0 0 24 24" fill="none" xmlns="http://www.w3.org/2000/svg">
<path fill-rule="evenodd" clip-rule="evenodd" d="M4.09961 11.9996C4.09961 11.5026 4.50255 11.0996 4.99961 11.0996H18.9996C19.4967 11.0996 19.8996 11.5026 19.8996 11.9996C19.8996 12.4967 19.4967 12.8996 18.9996 12.8996H4.99961C4.50255 12.8996 4.09961 12.4967 4.09961 11.9996Z" fill="#131A25"/>
<path fill-rule="evenodd" clip-rule="evenodd" d="M12.636 4.36321C12.9875 4.71469 12.9875 5.28453 12.636 5.63601L6.2724 11.9996L12.636 18.3632C12.9875 18.7147 12.9875 19.2845 12.636 19.636C12.2845 19.9875 11.7147 19.9875 11.3632 19.636L4.36321 12.636C4.01174 12.2845 4.01174 11.7147 4.36321 11.3632L11.3632 4.36321C11.7147 4.01174 12.2845 4.01174 12.636 4.36321Z" fill="#131A25"/>
</svg>
