<svg width="20" height="20" viewBox="0 0 20 20" fill="none" xmlns="http://www.w3.org/2000/svg">
<rect x="0.5" y="0.5" width="19" height="19" rx="3.5" fill="white"/>
<rect x="0.5" y="0.5" width="19" height="19" rx="3.5" stroke="#484E56"/>
<path d="M6.8417 15V6.06H10.5977C11.1337 6.06 11.5937 6.156 11.9777 6.348C12.3697 6.54 12.6697 6.812 12.8777 7.164C13.0937 7.508 13.2017 7.92 13.2017 8.4C13.2017 8.84 13.0857 9.24 12.8537 9.6C12.6297 9.952 12.2977 10.228 11.8577 10.428L11.8457 9.984C12.2297 10.128 12.5457 10.32 12.7937 10.56C13.0497 10.792 13.2417 11.064 13.3697 11.376C13.4977 11.68 13.5617 12.004 13.5617 12.348C13.5617 13.172 13.2977 13.82 12.7697 14.292C12.2417 14.764 11.5217 15 10.6097 15H6.8417ZM8.0177 13.92H10.6577C11.1777 13.92 11.5937 13.78 11.9057 13.5C12.2177 13.22 12.3737 12.84 12.3737 12.36C12.3737 11.88 12.2177 11.5 11.9057 11.22C11.5937 10.932 11.1777 10.788 10.6577 10.788H8.0177V13.92ZM8.0177 9.732H10.5737C11.0057 9.732 11.3537 9.608 11.6177 9.36C11.8817 9.104 12.0137 8.78 12.0137 8.388C12.0137 7.98 11.8817 7.668 11.6177 7.452C11.3537 7.236 11.0057 7.128 10.5737 7.128H8.0177V9.732Z" fill="#484E56"/>
</svg>
