<svg width="22" height="22" viewBox="0 0 22 22" fill="none" xmlns="http://www.w3.org/2000/svg">
<path fill-rule="evenodd" clip-rule="evenodd" d="M4.58314 3.5748C4.02625 3.5748 3.5748 4.02625 3.5748 4.58314V17.4165C3.5748 17.9734 4.02625 18.4248 4.58314 18.4248H17.4165C17.9734 18.4248 18.4248 17.9734 18.4248 17.4165V4.58314C18.4248 4.02625 17.9734 3.5748 17.4165 3.5748H4.58314ZM1.9248 4.58314C1.9248 3.11498 3.11498 1.9248 4.58314 1.9248H17.4165C18.8846 1.9248 20.0748 3.11498 20.0748 4.58314V17.4165C20.0748 18.8846 18.8846 20.0748 17.4165 20.0748H4.58314C3.11498 20.0748 1.9248 18.8846 1.9248 17.4165V4.58314Z" fill="#131A25"/>
<path fill-rule="evenodd" clip-rule="evenodd" d="M8.2498 7.4248C8.70544 7.4248 9.07481 7.79417 9.07481 8.2498V19.2498C9.07481 19.7054 8.70544 20.0748 8.2498 20.0748C7.79417 20.0748 7.4248 19.7054 7.4248 19.2498V8.2498C7.4248 7.79417 7.79417 7.4248 8.2498 7.4248Z" fill="#131A25"/>
<path fill-rule="evenodd" clip-rule="evenodd" d="M1.9248 8.2498C1.9248 7.79417 2.29417 7.4248 2.7498 7.4248H19.2498C19.7054 7.4248 20.0748 7.79417 20.0748 8.2498C20.0748 8.70544 19.7054 9.07481 19.2498 9.07481H2.7498C2.29417 9.07481 1.9248 8.70544 1.9248 8.2498Z" fill="#131A25"/>
</svg>
