<svg width="20" height="20" viewBox="0 0 20 20" fill="none" xmlns="http://www.w3.org/2000/svg">
<path d="M6.18341 12.9497C6.0282 13.1058 5.94108 13.317 5.94108 13.5372C5.94108 13.7573 6.0282 13.9685 6.18341 14.1247C6.26088 14.2028 6.35305 14.2648 6.4546 14.3071C6.55615 14.3494 6.66507 14.3712 6.77508 14.3712C6.88509 14.3712 6.99401 14.3494 7.09556 14.3071C7.19711 14.2648 7.28928 14.2028 7.36674 14.1247C7.52195 13.9685 7.60907 13.7573 7.60907 13.5372C7.60907 13.317 7.52195 13.1058 7.36674 12.9497C7.28928 12.8716 7.19711 12.8096 7.09556 12.7673C6.99401 12.725 6.88509 12.7032 6.77508 12.7032C6.66507 12.7032 6.55615 12.725 6.4546 12.7673C6.35305 12.8096 6.26088 12.8716 6.18341 12.9497ZM6.18341 5.87467C6.0282 6.0308 5.94108 6.24201 5.94108 6.46217C5.94108 6.68232 6.0282 6.89353 6.18341 7.04967C6.26088 7.12777 6.35305 7.18977 6.4546 7.23208C6.55615 7.27438 6.66507 7.29617 6.77508 7.29617C6.88509 7.29617 6.99401 7.27438 7.09556 7.23208C7.19711 7.18977 7.28928 7.12777 7.36674 7.04967C7.52195 6.89353 7.60907 6.68232 7.60907 6.46217C7.60907 6.24201 7.52195 6.0308 7.36674 5.87467C7.28928 5.79656 7.19711 5.73457 7.09556 5.69226C6.99401 5.64995 6.88509 5.62817 6.77508 5.62817C6.66507 5.62817 6.55615 5.64995 6.4546 5.69226C6.35305 5.73457 6.26088 5.79656 6.18341 5.87467ZM10.3084 14.208C10.1436 14.208 9.98248 14.2569 9.84544 14.3484C9.7084 14.44 9.60158 14.5702 9.53851 14.7224C9.47544 14.8747 9.45894 15.0423 9.49109 15.2039C9.52324 15.3656 9.60261 15.514 9.71916 15.6306C9.8357 15.7471 9.98419 15.8265 10.1458 15.8587C10.3075 15.8908 10.475 15.8743 10.6273 15.8112C10.7796 15.7482 10.9097 15.6414 11.0013 15.5043C11.0929 15.3673 11.1417 15.2062 11.1417 15.0413C11.1474 14.9284 11.13 14.8156 11.0907 14.7096C11.0513 14.6037 10.9909 14.5068 10.9129 14.425C10.8349 14.3431 10.7412 14.278 10.6372 14.2335C10.5333 14.189 10.4214 14.1662 10.3084 14.1663V14.208ZM5.30841 9.208C5.14359 9.208 4.98248 9.25688 4.84544 9.34844C4.7084 9.44001 4.60158 9.57016 4.53851 9.72243C4.47544 9.8747 4.45894 10.0423 4.49109 10.2039C4.52324 10.3656 4.60261 10.514 4.71916 10.6306C4.8357 10.7471 4.98419 10.8265 5.14584 10.8587C5.30749 10.8908 5.47504 10.8743 5.62731 10.8112C5.77959 10.7482 5.90974 10.6413 6.0013 10.5043C6.09287 10.3673 6.14175 10.2062 6.14175 10.0413C6.1474 9.92844 6.13002 9.81559 6.09068 9.70962C6.05134 9.60366 5.99085 9.5068 5.9129 9.42495C5.83495 9.3431 5.74116 9.27797 5.63724 9.23351C5.53332 9.18905 5.42144 9.16619 5.30841 9.16633V9.208ZM10.3084 4.208C10.1436 4.208 9.98248 4.25688 9.84544 4.34844C9.7084 4.44001 9.60158 4.57016 9.53851 4.72243C9.47544 4.8747 9.45894 5.04226 9.49109 5.20391C9.52324 5.36556 9.60261 5.51405 9.71916 5.63059C9.8357 5.74713 9.98419 5.8265 10.1458 5.85866C10.3075 5.89081 10.475 5.87431 10.6273 5.81123C10.7796 5.74816 10.9097 5.64135 11.0013 5.50431C11.0929 5.36727 11.1417 5.20615 11.1417 5.04133C11.1474 4.92844 11.13 4.81559 11.0907 4.70962C11.0513 4.60366 10.9909 4.5068 10.9129 4.42495C10.8349 4.3431 10.7412 4.27797 10.6372 4.23351C10.5333 4.18905 10.4214 4.16619 10.3084 4.16633V4.208ZM13.2584 5.91633C13.1414 6.03268 13.0615 6.18116 13.029 6.34294C12.9964 6.50473 13.0126 6.67254 13.0755 6.8251C13.1385 6.97766 13.2453 7.1081 13.3824 7.19989C13.5196 7.29167 13.6809 7.34067 13.8459 7.34067C14.0109 7.34067 14.1723 7.29167 14.3094 7.19989C14.4466 7.1081 14.5534 6.97766 14.6163 6.8251C14.6792 6.67254 14.6954 6.50473 14.6629 6.34294C14.6303 6.18116 14.5505 6.03268 14.4334 5.91633C14.2829 5.75546 14.0747 5.66077 13.8545 5.65296C13.6343 5.64515 13.42 5.72487 13.2584 5.87467V5.91633ZM18.5084 5.91633C17.7465 4.39325 16.5754 3.11252 15.1264 2.21775C13.6774 1.32299 12.0078 0.84957 10.3047 0.850588C8.60174 0.851605 6.93268 1.32702 5.48473 2.22351C4.03678 3.12001 2.86721 4.40214 2.10714 5.92614C1.34708 7.45013 1.02659 9.15573 1.18162 10.8517C1.33664 12.5476 1.96104 14.1668 2.9848 15.5278C4.00856 16.8887 5.39121 17.9376 6.97769 18.5567C8.56418 19.1758 10.2918 19.3408 11.9667 19.033C12.3879 18.9537 12.7891 18.7913 13.1468 18.5552C13.5045 18.3191 13.8116 18.0141 14.0501 17.658C14.307 17.2708 14.4843 16.8364 14.5716 16.38C14.6589 15.9235 14.6544 15.4543 14.5584 14.9997C14.5059 14.7249 14.478 14.446 14.4751 14.1663C14.4787 13.3588 14.717 12.5697 15.1608 11.8951C15.6046 11.2205 16.235 10.6893 16.9751 10.3663C17.3741 10.1877 17.7323 9.9291 18.0276 9.60662C18.3228 9.28413 18.5489 8.90456 18.6917 8.49133C18.8362 8.06907 18.8945 7.62209 18.863 7.1769C18.8315 6.73172 18.7109 6.29738 18.5084 5.89967V5.91633ZM17.0917 7.94967C17.0206 8.1491 16.9102 8.33224 16.7671 8.48826C16.624 8.64428 16.451 8.77001 16.2584 8.858C15.2334 9.31683 14.3626 10.0618 13.7506 11.0034C13.1386 11.945 12.8115 13.0433 12.8084 14.1663C12.8096 14.5581 12.8487 14.9488 12.9251 15.333C12.976 15.5678 12.9793 15.8105 12.935 16.0466C12.8906 16.2828 12.7994 16.5077 12.6667 16.708C12.5545 16.8833 12.4068 17.0332 12.2331 17.1481C12.0595 17.2629 11.8637 17.3401 11.6584 17.3747C11.2133 17.4583 10.7613 17.5002 10.3084 17.4997C9.30355 17.5002 8.30884 17.2987 7.38335 16.9073C6.45786 16.5159 5.62046 15.9425 4.92088 15.2211C4.2213 14.4998 3.67381 13.6452 3.31092 12.7082C2.94804 11.7711 2.77715 10.7707 2.80841 9.76633C2.87309 7.89366 3.63258 6.11213 4.93894 4.7688C6.24529 3.42548 8.00494 2.61657 9.87508 2.49967H10.3001C11.6965 2.50002 13.0652 2.89024 14.2518 3.62639C15.4385 4.36254 16.3961 5.41537 17.0167 6.66633C17.2078 7.06215 17.2347 7.51741 17.0917 7.933V7.94967ZM10.3084 9.16633C10.1436 9.16633 9.98248 9.21521 9.84544 9.30678C9.7084 9.39834 9.60158 9.52849 9.53851 9.68076C9.47544 9.83304 9.45894 10.0006 9.49109 10.1622C9.52324 10.3239 9.60261 10.4724 9.71916 10.5889C9.8357 10.7055 9.98419 10.7848 10.1458 10.817C10.3075 10.8491 10.475 10.8326 10.6273 10.7696C10.7796 10.7065 10.9097 10.5997 11.0013 10.4626C11.0929 10.3256 11.1417 10.1645 11.1417 9.99967C11.1417 9.77865 11.0539 9.56669 10.8977 9.41041C10.7414 9.25413 10.5294 9.16633 10.3084 9.16633Z" fill="#484E56"/>
</svg>
