<svg width="20" height="20" viewBox="0 0 20 20" fill="none" xmlns="http://www.w3.org/2000/svg">
<path d="M17.5003 12.5H2.50033C2.27931 12.5 2.06735 12.5878 1.91107 12.7441C1.75479 12.9004 1.66699 13.1123 1.66699 13.3333C1.66699 13.5543 1.75479 13.7663 1.91107 13.9226C2.06735 14.0789 2.27931 14.1667 2.50033 14.1667H17.5003C17.7213 14.1667 17.9333 14.0789 18.0896 13.9226C18.2459 13.7663 18.3337 13.5543 18.3337 13.3333C18.3337 13.1123 18.2459 12.9004 18.0896 12.7441C17.9333 12.5878 17.7213 12.5 17.5003 12.5ZM2.50033 4.16667H17.5003C17.7213 4.16667 17.9333 4.07887 18.0896 3.92259C18.2459 3.76631 18.3337 3.55435 18.3337 3.33333C18.3337 3.11232 18.2459 2.90036 18.0896 2.74408C17.9333 2.5878 17.7213 2.5 17.5003 2.5H2.50033C2.27931 2.5 2.06735 2.5878 1.91107 2.74408C1.75479 2.90036 1.66699 3.11232 1.66699 3.33333C1.66699 3.55435 1.75479 3.76631 1.91107 3.92259C2.06735 4.07887 2.27931 4.16667 2.50033 4.16667ZM14.167 15.8333H5.83366C5.61265 15.8333 5.40068 15.9211 5.2444 16.0774C5.08812 16.2337 5.00033 16.4457 5.00033 16.6667C5.00033 16.8877 5.08812 17.0996 5.2444 17.2559C5.40068 17.4122 5.61265 17.5 5.83366 17.5H14.167C14.388 17.5 14.6 17.4122 14.7562 17.2559C14.9125 17.0996 15.0003 16.8877 15.0003 16.6667C15.0003 16.4457 14.9125 16.2337 14.7562 16.0774C14.6 15.9211 14.388 15.8333 14.167 15.8333ZM17.5003 5.83333H2.50033C2.27931 5.83333 2.06735 5.92113 1.91107 6.07741C1.75479 6.23369 1.66699 6.44565 1.66699 6.66667C1.66699 6.88768 1.75479 7.09964 1.91107 7.25592C2.06735 7.4122 2.27931 7.5 2.50033 7.5H17.5003C17.7213 7.5 17.9333 7.4122 18.0896 7.25592C18.2459 7.09964 18.3337 6.88768 18.3337 6.66667C18.3337 6.44565 18.2459 6.23369 18.0896 6.07741C17.9333 5.92113 17.7213 5.83333 17.5003 5.83333ZM17.5003 9.16667H2.50033C2.27931 9.16667 2.06735 9.25446 1.91107 9.41074C1.75479 9.56702 1.66699 9.77899 1.66699 10C1.66699 10.221 1.75479 10.433 1.91107 10.5893C2.06735 10.7455 2.27931 10.8333 2.50033 10.8333H17.5003C17.7213 10.8333 17.9333 10.7455 18.0896 10.5893C18.2459 10.433 18.3337 10.221 18.3337 10C18.3337 9.77899 18.2459 9.56702 18.0896 9.41074C17.9333 9.25446 17.7213 9.16667 17.5003 9.16667Z" fill="#484E56"/>
</svg>
