<svg width="24" height="24" viewBox="0 0 24 24" fill="none" xmlns="http://www.w3.org/2000/svg">
<path d="M21.8 14.0004C20.8734 18.5649 16.8379 22.0004 12 22.0004C6.47715 22.0004 2 17.5233 2 12.0004C2 6.81507 5.94668 2.55152 11 2.0498" stroke="#09132A" stroke-width="1.5" stroke-linecap="round" stroke-linejoin="round"/>
<path d="M6.5 10C6.22386 10 6 9.77614 6 9.5C6 9.22386 6.22386 9 6.5 9C6.77614 9 7 9.22386 7 9.5C7 9.77614 6.77614 10 6.5 10Z" stroke="#09132A" stroke-width="1.5" stroke-linecap="round" stroke-linejoin="round"/>
<path d="M20.5 4C20.2239 4 20 3.77614 20 3.5C20 3.22386 20.2239 3 20.5 3C20.7761 3 21 3.22386 21 3.5C21 3.77614 20.7761 4 20.5 4Z" stroke="#09132A" stroke-width="1.5" stroke-linecap="round" stroke-linejoin="round"/>
<path d="M12 19C11.4477 19 11 18.5523 11 18C11 17.4477 11.4477 17 12 17C12.5523 17 13 17.4477 13 18C13 18.5523 12.5523 19 12 19Z" stroke="#09132A" stroke-width="1.5" stroke-linecap="round" stroke-linejoin="round"/>
<path d="M7 15.0101L7.01 14.999" stroke="#09132A" stroke-width="1.5" stroke-linecap="round" stroke-linejoin="round"/>
<path d="M17 15.0101L17.01 14.999" stroke="#09132A" stroke-width="1.5" stroke-linecap="round" stroke-linejoin="round"/>
<path d="M11 12.0101L11.01 11.999" stroke="#09132A" stroke-width="1.5" stroke-linecap="round" stroke-linejoin="round"/>
<path d="M21 9.01013L21.01 8.99902" stroke="#09132A" stroke-width="1.5" stroke-linecap="round" stroke-linejoin="round"/>
<path d="M17 6.01013L17.01 5.99902" stroke="#09132A" stroke-width="1.5" stroke-linecap="round" stroke-linejoin="round"/>
<path d="M10.9997 2C10.4997 3.5 11.4996 5 13.0852 5C10.9997 8.5 12.9997 12 17.9997 11.5C17.9997 14 20.4997 14.5 21.6995 14.0136" stroke="#09132A" stroke-width="1.5" stroke-linecap="round" stroke-linejoin="round"/>
</svg>
