<svg width="113" height="70" viewBox="0 0 113 70" fill="none" xmlns="http://www.w3.org/2000/svg">
<rect width="113" height="70" rx="6" fill="#484E56"/>
<g clip-path="url(#clip0_340_13477)">
<path d="M51.5 35C51.5 36.4587 52.0795 37.8576 53.1109 38.8891C54.1424 39.9205 55.5413 40.5 57 40.5C58.4587 40.5 59.8576 39.9205 60.8891 38.8891C61.9205 37.8576 62.5 36.4587 62.5 35C62.5 33.5413 61.9205 32.1424 60.8891 31.1109C59.8576 30.0795 58.4587 29.5 57 29.5C55.5413 29.5 54.1424 30.0795 53.1109 31.1109C52.0795 32.1424 51.5 33.5413 51.5 35Z" stroke="white" stroke-width="2.75" stroke-linecap="round" stroke-linejoin="round"/>
<path d="M57 22.1667V18.5" stroke="white" stroke-width="2.75" stroke-linecap="round" stroke-linejoin="round"/>
<path d="M66.167 25.8333L68.7337 23.2666" stroke="white" stroke-width="2.75" stroke-linecap="round" stroke-linejoin="round"/>
<path d="M69.833 35H73.4997" stroke="white" stroke-width="2.75" stroke-linecap="round" stroke-linejoin="round"/>
<path d="M66.167 44.167L68.7337 46.7337" stroke="white" stroke-width="2.75" stroke-linecap="round" stroke-linejoin="round"/>
<path d="M57 47.833V51.4997" stroke="white" stroke-width="2.75" stroke-linecap="round" stroke-linejoin="round"/>
<path d="M47.8333 44.167L45.2666 46.7337" stroke="white" stroke-width="2.75" stroke-linecap="round" stroke-linejoin="round"/>
<path d="M45.9997 35H42.333" stroke="white" stroke-width="2.75" stroke-linecap="round" stroke-linejoin="round"/>
<path d="M47.8333 25.8333L45.2666 23.2666" stroke="white" stroke-width="2.75" stroke-linecap="round" stroke-linejoin="round"/>
</g>
<defs>
<clipPath id="clip0_340_13477">
<rect width="44" height="44" fill="white" transform="translate(35 13)"/>
</clipPath>
</defs>
</svg>
