<svg width="16" height="16" viewBox="0 0 16 16" fill="none" xmlns="http://www.w3.org/2000/svg">
<path d="M6.66667 12.0002C6.84348 12.0002 7.01305 11.9299 7.13807 11.8049C7.2631 11.6799 7.33333 11.5103 7.33333 11.3335V7.3335C7.33333 7.15669 7.2631 6.98712 7.13807 6.86209C7.01305 6.73707 6.84348 6.66683 6.66667 6.66683C6.48986 6.66683 6.32029 6.73707 6.19526 6.86209C6.07024 6.98712 6 7.15669 6 7.3335V11.3335C6 11.5103 6.07024 11.6799 6.19526 11.8049C6.32029 11.9299 6.48986 12.0002 6.66667 12.0002ZM13.3333 4.00016H10.6667V3.3335C10.6667 2.80306 10.456 2.29436 10.0809 1.91928C9.70581 1.54421 9.1971 1.3335 8.66667 1.3335H7.33333C6.8029 1.3335 6.29419 1.54421 5.91912 1.91928C5.54405 2.29436 5.33333 2.80306 5.33333 3.3335V4.00016H2.66667C2.48986 4.00016 2.32029 4.0704 2.19526 4.19543C2.07024 4.32045 2 4.49002 2 4.66683C2 4.84364 2.07024 5.01321 2.19526 5.13823C2.32029 5.26326 2.48986 5.3335 2.66667 5.3335H3.33333V12.6668C3.33333 13.1973 3.54405 13.706 3.91912 14.081C4.29419 14.4561 4.8029 14.6668 5.33333 14.6668H10.6667C11.1971 14.6668 11.7058 14.4561 12.0809 14.081C12.456 13.706 12.6667 13.1973 12.6667 12.6668V5.3335H13.3333C13.5101 5.3335 13.6797 5.26326 13.8047 5.13823C13.9298 5.01321 14 4.84364 14 4.66683C14 4.49002 13.9298 4.32045 13.8047 4.19543C13.6797 4.0704 13.5101 4.00016 13.3333 4.00016ZM6.66667 3.3335C6.66667 3.15669 6.7369 2.98712 6.86193 2.86209C6.98695 2.73707 7.15652 2.66683 7.33333 2.66683H8.66667C8.84348 2.66683 9.01305 2.73707 9.13807 2.86209C9.2631 2.98712 9.33333 3.15669 9.33333 3.3335V4.00016H6.66667V3.3335ZM11.3333 12.6668C11.3333 12.8436 11.2631 13.0132 11.1381 13.1382C11.013 13.2633 10.8435 13.3335 10.6667 13.3335H5.33333C5.15652 13.3335 4.98695 13.2633 4.86193 13.1382C4.7369 13.0132 4.66667 12.8436 4.66667 12.6668V5.3335H11.3333V12.6668ZM9.33333 12.0002C9.51014 12.0002 9.67971 11.9299 9.80474 11.8049C9.92976 11.6799 10 11.5103 10 11.3335V7.3335C10 7.15669 9.92976 6.98712 9.80474 6.86209C9.67971 6.73707 9.51014 6.66683 9.33333 6.66683C9.15652 6.66683 8.98695 6.73707 8.86193 6.86209C8.73691 6.98712 8.66667 7.15669 8.66667 7.3335V11.3335C8.66667 11.5103 8.73691 11.6799 8.86193 11.8049C8.98695 11.9299 9.15652 12.0002 9.33333 12.0002Z" fill="#A21615"/>
</svg>
