<svg width="17" height="16" viewBox="0 0 17 16" fill="none" xmlns="http://www.w3.org/2000/svg">
<path d="M14.5007 8.00061C14.3238 8.00061 14.1543 8.07085 14.0292 8.19587C13.9042 8.3209 13.834 8.49047 13.834 8.66728V12.6673C13.834 12.8441 13.7637 13.0137 13.6387 13.1387C13.5137 13.2637 13.3441 13.3339 13.1673 13.3339H3.83398C3.65717 13.3339 3.4876 13.2637 3.36258 13.1387C3.23756 13.0137 3.16732 12.8441 3.16732 12.6673V3.33394C3.16732 3.15713 3.23756 2.98756 3.36258 2.86254C3.4876 2.73752 3.65717 2.66728 3.83398 2.66728H7.83398C8.0108 2.66728 8.18036 2.59704 8.30539 2.47201C8.43041 2.34699 8.50065 2.17742 8.50065 2.00061C8.50065 1.8238 8.43041 1.65423 8.30539 1.52921C8.18036 1.40418 8.0108 1.33394 7.83398 1.33394H3.83398C3.30355 1.33394 2.79484 1.54466 2.41977 1.91973C2.0447 2.2948 1.83398 2.80351 1.83398 3.33394V12.6673C1.83398 13.1977 2.0447 13.7064 2.41977 14.0815C2.79484 14.4566 3.30355 14.6673 3.83398 14.6673H13.1673C13.6978 14.6673 14.2065 14.4566 14.5815 14.0815C14.9566 13.7064 15.1673 13.1977 15.1673 12.6673V8.66728C15.1673 8.49047 15.0971 8.3209 14.9721 8.19587C14.847 8.07085 14.6775 8.00061 14.5007 8.00061ZM4.50065 8.50728V11.3339C4.50065 11.5108 4.57089 11.6803 4.69591 11.8053C4.82094 11.9304 4.99051 12.0006 5.16732 12.0006H7.99398C8.08172 12.0011 8.1687 11.9843 8.24992 11.9511C8.33115 11.9179 8.40502 11.8691 8.46732 11.8073L13.0807 7.18728L14.974 5.33394C15.0365 5.27197 15.0861 5.19823 15.1199 5.11699C15.1538 5.03576 15.1712 4.94862 15.1712 4.86061C15.1712 4.7726 15.1538 4.68547 15.1199 4.60423C15.0861 4.52299 15.0365 4.44925 14.974 4.38728L12.1473 1.52728C12.0853 1.46479 12.0116 1.4152 11.9304 1.38135C11.8491 1.3475 11.762 1.33008 11.674 1.33008C11.586 1.33008 11.4988 1.3475 11.4176 1.38135C11.3364 1.4152 11.2626 1.46479 11.2007 1.52728L9.32065 3.41394L4.69398 8.03394C4.6322 8.09624 4.58331 8.17011 4.55014 8.25134C4.51696 8.33256 4.50014 8.41954 4.50065 8.50728ZM11.674 2.94061L13.5607 4.82728L12.614 5.77394L10.7273 3.88728L11.674 2.94061ZM5.83398 8.78061L9.78732 4.82728L11.674 6.71394L7.72065 10.6673H5.83398V8.78061Z" fill="#214698"/>
</svg>
