<svg width="14" height="14" viewBox="0 0 14 14" fill="none" xmlns="http://www.w3.org/2000/svg">
<path d="M7.00027 9.33366C6.88489 9.33366 6.77211 9.36787 6.67618 9.43196C6.58026 9.49606 6.50549 9.58717 6.46134 9.69376C6.41719 9.80035 6.40563 9.91764 6.42814 10.0308C6.45065 10.1439 6.50621 10.2479 6.58779 10.3295C6.66937 10.411 6.77331 10.4666 6.88646 10.4891C6.99962 10.5116 7.11691 10.5001 7.2235 10.4559C7.33009 10.4118 7.42119 10.337 7.48529 10.2411C7.54939 10.1451 7.5836 10.0324 7.5836 9.91699C7.5836 9.76228 7.52214 9.6139 7.41274 9.50451C7.30335 9.39511 7.15498 9.33366 7.00027 9.33366ZM13.2244 10.1912L8.5286 2.02449C8.37682 1.75237 8.15514 1.52571 7.88646 1.36793C7.61778 1.21014 7.31185 1.12695 7.00027 1.12695C6.68868 1.12695 6.38275 1.21014 6.11407 1.36793C5.84539 1.52571 5.62371 1.75237 5.47193 2.02449L0.805266 10.1912C0.64823 10.456 0.563849 10.7576 0.560642 11.0655C0.557435 11.3733 0.635515 11.6766 0.786999 11.9447C0.938484 12.2127 1.15801 12.4361 1.42341 12.5922C1.68882 12.7483 1.99071 12.8316 2.2986 12.8337H11.7019C12.0123 12.8367 12.3179 12.7572 12.5874 12.6032C12.8569 12.4492 13.0806 12.2263 13.2355 11.9574C13.3905 11.6884 13.4711 11.3831 13.4691 11.0728C13.4672 10.7624 13.3827 10.4581 13.2244 10.1912ZM12.2153 11.3578C12.1641 11.4488 12.0895 11.5244 11.9992 11.5767C11.909 11.629 11.8063 11.6562 11.7019 11.6553H2.2986C2.19425 11.6562 2.09157 11.629 2.00128 11.5767C1.911 11.5244 1.8364 11.4488 1.78527 11.3578C1.73407 11.2691 1.70711 11.1686 1.70711 11.0662C1.70711 10.9638 1.73407 10.8632 1.78527 10.7745L6.45193 2.60782C6.50089 2.51227 6.57526 2.43208 6.66686 2.37609C6.75846 2.32009 6.86374 2.29046 6.9711 2.29046C7.07846 2.29046 7.18374 2.32009 7.27534 2.37609C7.36694 2.43208 7.44131 2.51227 7.49027 2.60782L12.1861 10.7745C12.244 10.8619 12.2772 10.9633 12.2824 11.068C12.2875 11.1727 12.2643 11.2768 12.2153 11.3695V11.3578ZM7.00027 4.66699C6.84556 4.66699 6.69718 4.72845 6.58779 4.83784C6.47839 4.94724 6.41693 5.09561 6.41693 5.25032V7.58365C6.41693 7.73836 6.47839 7.88674 6.58779 7.99613C6.69718 8.10553 6.84556 8.16699 7.00027 8.16699C7.15498 8.16699 7.30335 8.10553 7.41274 7.99613C7.52214 7.88674 7.5836 7.73836 7.5836 7.58365V5.25032C7.5836 5.09561 7.52214 4.94724 7.41274 4.83784C7.30335 4.72845 7.15498 4.66699 7.00027 4.66699Z" fill="#CB7100"/>
</svg>
