<svg width="17" height="17" viewBox="0 0 17 17" fill="none" xmlns="http://www.w3.org/2000/svg">
<path d="M8.33334 4.16667C8.11232 4.16667 7.90036 4.25446 7.74408 4.41074C7.5878 4.56703 7.5 4.77899 7.5 5V8.33333C7.5 8.55435 7.5878 8.76631 7.74408 8.92259C7.90036 9.07887 8.11232 9.16667 8.33334 9.16667C8.55435 9.16667 8.76631 9.07887 8.92259 8.92259C9.07887 8.76631 9.16667 8.55435 9.16667 8.33333V5C9.16667 4.77899 9.07887 4.56703 8.92259 4.41074C8.76631 4.25446 8.55435 4.16667 8.33334 4.16667ZM9.1 11.35C9.08176 11.2969 9.05654 11.2465 9.025 11.2L8.925 11.075C8.80782 10.9594 8.65901 10.881 8.49735 10.8499C8.33569 10.8187 8.16843 10.8362 8.01667 10.9C7.91568 10.9422 7.82267 11.0014 7.74167 11.075C7.66444 11.1529 7.60333 11.2452 7.56186 11.3467C7.52039 11.4483 7.49937 11.557 7.5 11.6667C7.50132 11.7756 7.52397 11.8831 7.56667 11.9833C7.6041 12.0867 7.66381 12.1807 7.74158 12.2584C7.81934 12.3362 7.91326 12.3959 8.01667 12.4333C8.11642 12.4774 8.22428 12.5002 8.33334 12.5002C8.4424 12.5002 8.55025 12.4774 8.65 12.4333C8.75342 12.3959 8.84733 12.3362 8.9251 12.2584C9.00286 12.1807 9.06258 12.0867 9.1 11.9833C9.1427 11.8831 9.16535 11.7756 9.16667 11.6667C9.17076 11.6112 9.17076 11.5555 9.16667 11.5C9.15232 11.4469 9.12983 11.3963 9.1 11.35V11.35ZM8.33334 0C6.68516 0 5.07399 0.488742 3.70358 1.40442C2.33318 2.3201 1.26507 3.62159 0.634341 5.1443C0.0036107 6.66702 -0.161417 8.34258 0.160126 9.95909C0.48167 11.5756 1.27534 13.0605 2.44078 14.2259C3.60622 15.3913 5.09108 16.185 6.70758 16.5065C8.32409 16.8281 9.99965 16.6631 11.5224 16.0323C13.0451 15.4016 14.3466 14.3335 15.2622 12.9631C16.1779 11.5927 16.6667 9.98151 16.6667 8.33333C16.6667 7.23898 16.4511 6.15535 16.0323 5.1443C15.6135 4.13326 14.9997 3.2146 14.2259 2.44078C13.4521 1.66696 12.5334 1.05313 11.5224 0.634337C10.5113 0.215548 9.42769 0 8.33334 0V0ZM8.33334 15C7.0148 15 5.72586 14.609 4.62954 13.8765C3.53321 13.1439 2.67872 12.1027 2.17414 10.8846C1.66956 9.66638 1.53753 8.32594 1.79477 7.03273C2.052 5.73952 2.68694 4.55164 3.61929 3.61929C4.55164 2.68694 5.73953 2.052 7.03274 1.79477C8.32594 1.53753 9.66639 1.66955 10.8846 2.17414C12.1027 2.67872 13.1439 3.5332 13.8765 4.62953C14.609 5.72586 15 7.01479 15 8.33333C15 10.1014 14.2976 11.7971 13.0474 13.0474C11.7971 14.2976 10.1014 15 8.33334 15V15Z" fill="#E23318"/>
</svg>
