<svg width="16" height="16" viewBox="0 0 16 16" fill="none" xmlns="http://www.w3.org/2000/svg">
<path d="M13.9467 10.4133C13.9129 10.3325 13.8656 10.2581 13.8067 10.1933L11.8067 8.19325C11.6811 8.06772 11.5109 7.99719 11.3333 7.99719C11.1558 7.99719 10.9855 8.06772 10.86 8.19325C10.7345 8.31879 10.6639 8.48905 10.6639 8.66659C10.6639 8.84412 10.7345 9.01438 10.86 9.13992L11.7267 9.99992H8C7.82319 9.99992 7.65362 10.0702 7.5286 10.1952C7.40357 10.3202 7.33333 10.4898 7.33333 10.6666C7.33333 10.8434 7.40357 11.013 7.5286 11.138C7.65362 11.263 7.82319 11.3333 8 11.3333H11.7267L10.86 12.1933C10.7975 12.2552 10.7479 12.329 10.7141 12.4102C10.6802 12.4914 10.6628 12.5786 10.6628 12.6666C10.6628 12.7546 10.6802 12.8417 10.7141 12.923C10.7479 13.0042 10.7975 13.0779 10.86 13.1399C10.922 13.2024 10.9957 13.252 11.0769 13.2858C11.1582 13.3197 11.2453 13.3371 11.3333 13.3371C11.4213 13.3371 11.5085 13.3197 11.5897 13.2858C11.671 13.252 11.7447 13.2024 11.8067 13.1399L13.8067 11.1399C13.8684 11.0773 13.9161 11.0023 13.9467 10.9199C14.0133 10.7576 14.0133 10.5756 13.9467 10.4133ZM9.33333 13.3333H4C3.82319 13.3333 3.65362 13.263 3.5286 13.138C3.40357 13.013 3.33333 12.8434 3.33333 12.6666V3.33325C3.33333 3.15644 3.40357 2.98687 3.5286 2.86185C3.65362 2.73682 3.82319 2.66659 4 2.66659H7.33333V4.66659C7.33333 5.19702 7.54405 5.70573 7.91912 6.0808C8.29419 6.45587 8.8029 6.66659 9.33333 6.66659H12C12.1316 6.66593 12.2601 6.62633 12.3692 6.55277C12.4784 6.47922 12.5633 6.375 12.6133 6.25325C12.6644 6.13184 12.6783 5.99804 12.6534 5.86871C12.6285 5.73938 12.5658 5.62033 12.4733 5.52659L8.47333 1.52659C8.41822 1.47473 8.35521 1.43197 8.28667 1.39992H8.22667L8.04 1.33325H4C3.46957 1.33325 2.96086 1.54397 2.58579 1.91904C2.21071 2.29411 2 2.80282 2 3.33325V12.6666C2 13.197 2.21071 13.7057 2.58579 14.0808C2.96086 14.4559 3.46957 14.6666 4 14.6666H9.33333C9.51014 14.6666 9.67971 14.5963 9.80474 14.4713C9.92976 14.3463 10 14.1767 10 13.9999C10 13.8231 9.92976 13.6535 9.80474 13.5285C9.67971 13.4035 9.51014 13.3333 9.33333 13.3333ZM8.66667 3.60659L10.3933 5.33325H9.33333C9.15652 5.33325 8.98695 5.26301 8.86193 5.13799C8.73691 5.01297 8.66667 4.8434 8.66667 4.66659V3.60659Z" fill="#131A25"/>
</svg>
