<svg width="14" height="12" viewBox="0 0 14 12" fill="none" xmlns="http://www.w3.org/2000/svg">
<path d="M13.6133 5.73341C12.2667 2.60675 9.73332 0.666748 6.99998 0.666748C4.26665 0.666748 1.73332 2.60675 0.38665 5.73341C0.349941 5.81753 0.330994 5.90831 0.330994 6.00008C0.330994 6.09185 0.349941 6.18264 0.38665 6.26675C1.73332 9.39341 4.26665 11.3334 6.99998 11.3334C9.73332 11.3334 12.2667 9.39341 13.6133 6.26675C13.65 6.18264 13.669 6.09185 13.669 6.00008C13.669 5.90831 13.65 5.81753 13.6133 5.73341ZM6.99998 10.0001C4.88665 10.0001 2.88665 8.47341 1.73332 6.00008C2.88665 3.52675 4.88665 2.00008 6.99998 2.00008C9.11332 2.00008 11.1133 3.52675 12.2667 6.00008C11.1133 8.47341 9.11332 10.0001 6.99998 10.0001ZM6.99998 3.33341C6.47257 3.33341 5.95699 3.48981 5.51846 3.78283C5.07993 4.07585 4.73814 4.49232 4.5363 4.97959C4.33447 5.46686 4.28166 6.00304 4.38456 6.52032C4.48745 7.0376 4.74143 7.51276 5.11437 7.8857C5.48731 8.25864 5.96246 8.51261 6.47974 8.61551C6.99703 8.7184 7.5332 8.66559 8.02047 8.46376C8.50774 8.26193 8.92422 7.92013 9.21724 7.4816C9.51025 7.04307 9.66665 6.5275 9.66665 6.00008C9.66665 5.29284 9.3857 4.61456 8.8856 4.11446C8.3855 3.61437 7.70723 3.33341 6.99998 3.33341ZM6.99998 7.33341C6.73628 7.33341 6.47849 7.25522 6.25922 7.10871C6.03996 6.9622 5.86906 6.75396 5.76814 6.51033C5.66723 6.26669 5.64082 5.9986 5.69227 5.73996C5.74372 5.48132 5.8707 5.24374 6.05717 5.05727C6.24364 4.8708 6.48122 4.74381 6.73986 4.69237C6.9985 4.64092 7.26659 4.66733 7.51023 4.76824C7.75386 4.86916 7.9621 5.04006 8.10861 5.25932C8.25512 5.47859 8.33332 5.73637 8.33332 6.00008C8.33332 6.3537 8.19284 6.69284 7.94279 6.94289C7.69274 7.19294 7.35361 7.33341 6.99998 7.33341Z" fill="#484E56"/>
</svg>
