<svg width="16" height="16" viewBox="0 0 16 16" fill="none" xmlns="http://www.w3.org/2000/svg">
<path fill-rule="evenodd" clip-rule="evenodd" d="M0.789014 1.74738C0.887329 1.53548 1.09969 1.3999 1.33328 1.3999H14.6666C14.9002 1.3999 15.1126 1.53548 15.2109 1.74738C15.3092 1.95927 15.2756 2.20897 15.1248 2.38734L9.93328 8.52626V13.9999C9.93328 14.2078 9.82561 14.401 9.64872 14.5103C9.47183 14.6196 9.25095 14.6296 9.06496 14.5366L6.39829 13.2032C6.19502 13.1016 6.06662 12.8938 6.06662 12.6666V8.52626L0.875142 2.38734C0.724304 2.20897 0.690699 1.95927 0.789014 1.74738ZM2.62647 2.5999L7.12476 7.91913C7.21636 8.02745 7.26662 8.16471 7.26662 8.30657V12.2957L8.73328 13.0291V8.30657C8.73328 8.16471 8.78354 8.02745 8.87514 7.91913L13.3734 2.5999H2.62647Z" fill="#131A25"/>
</svg>
