<svg width="53" height="53" viewBox="0 0 53 53" fill="none" xmlns="http://www.w3.org/2000/svg">
<rect width="52.5" height="52.5" rx="26.25" fill="white"/>
<path d="M26.875 33.25H20.75C20.5179 33.25 20.2954 33.1578 20.1313 32.9937C19.9672 32.8296 19.875 32.6071 19.875 32.375V20.125C19.875 19.8929 19.9672 19.6704 20.1313 19.5063C20.2954 19.3422 20.5179 19.25 20.75 19.25H25.125V21.875C25.125 22.5712 25.4016 23.2389 25.8938 23.7312C26.3861 24.2234 27.0538 24.5 27.75 24.5H30.375V26.25C30.375 26.4821 30.4672 26.7046 30.6313 26.8687C30.7954 27.0328 31.0179 27.125 31.25 27.125C31.4821 27.125 31.7046 27.0328 31.8687 26.8687C32.0328 26.7046 32.125 26.4821 32.125 26.25V23.625C32.125 23.625 32.125 23.625 32.125 23.5725C32.1159 23.4921 32.0983 23.4129 32.0725 23.3362V23.2575C32.0304 23.1675 31.9743 23.0848 31.9062 23.0125L26.6562 17.7625C26.5839 17.6944 26.5012 17.6383 26.4113 17.5962C26.3851 17.5925 26.3586 17.5925 26.3325 17.5962C26.2436 17.5453 26.1454 17.5126 26.0438 17.5H20.75C20.0538 17.5 19.3861 17.7766 18.8938 18.2688C18.4016 18.7611 18.125 19.4288 18.125 20.125V32.375C18.125 33.0712 18.4016 33.7389 18.8938 34.2312C19.3861 34.7234 20.0538 35 20.75 35H26.875C27.1071 35 27.3296 34.9078 27.4937 34.7437C27.6578 34.5796 27.75 34.3571 27.75 34.125C27.75 33.8929 27.6578 33.6704 27.4937 33.5063C27.3296 33.3422 27.1071 33.25 26.875 33.25ZM26.875 20.4837L29.1413 22.75H27.75C27.5179 22.75 27.2954 22.6578 27.1313 22.4937C26.9672 22.3296 26.875 22.1071 26.875 21.875V20.4837ZM22.5 22.75C22.2679 22.75 22.0454 22.8422 21.8813 23.0063C21.7172 23.1704 21.625 23.3929 21.625 23.625C21.625 23.8571 21.7172 24.0796 21.8813 24.2437C22.0454 24.4078 22.2679 24.5 22.5 24.5H23.375C23.6071 24.5 23.8296 24.4078 23.9937 24.2437C24.1578 24.0796 24.25 23.8571 24.25 23.625C24.25 23.3929 24.1578 23.1704 23.9937 23.0063C23.8296 22.8422 23.6071 22.75 23.375 22.75H22.5ZM27.75 26.25H22.5C22.2679 26.25 22.0454 26.3422 21.8813 26.5063C21.7172 26.6704 21.625 26.8929 21.625 27.125C21.625 27.3571 21.7172 27.5796 21.8813 27.7437C22.0454 27.9078 22.2679 28 22.5 28H27.75C27.9821 28 28.2046 27.9078 28.3687 27.7437C28.5328 27.5796 28.625 27.3571 28.625 27.125C28.625 26.8929 28.5328 26.6704 28.3687 26.5063C28.2046 26.3422 27.9821 26.25 27.75 26.25ZM33.6212 30.8787L31.8712 29.1287C31.788 29.0491 31.6899 28.9866 31.5825 28.945C31.3695 28.8575 31.1305 28.8575 30.9175 28.945C30.8101 28.9866 30.712 29.0491 30.6288 29.1287L28.8787 30.8787C28.714 31.0435 28.6214 31.267 28.6214 31.5C28.6214 31.733 28.714 31.9565 28.8787 32.1212C29.0435 32.286 29.267 32.3786 29.5 32.3786C29.733 32.3786 29.9565 32.286 30.1212 32.1212L30.375 31.8587V34.125C30.375 34.3571 30.4672 34.5796 30.6313 34.7437C30.7954 34.9078 31.0179 35 31.25 35C31.4821 35 31.7046 34.9078 31.8687 34.7437C32.0328 34.5796 32.125 34.3571 32.125 34.125V31.8587L32.3788 32.1212C32.4601 32.2033 32.5569 32.2684 32.6635 32.3128C32.7701 32.3572 32.8845 32.3801 33 32.3801C33.1155 32.3801 33.2299 32.3572 33.3365 32.3128C33.4431 32.2684 33.5399 32.2033 33.6212 32.1212C33.7033 32.0399 33.7684 31.9431 33.8128 31.8365C33.8572 31.7299 33.8801 31.6155 33.8801 31.5C33.8801 31.3845 33.8572 31.2701 33.8128 31.1635C33.7684 31.0569 33.7033 30.9601 33.6212 30.8787ZM26 31.5C26.2321 31.5 26.4546 31.4078 26.6187 31.2437C26.7828 31.0796 26.875 30.8571 26.875 30.625C26.875 30.3929 26.7828 30.1704 26.6187 30.0063C26.4546 29.8422 26.2321 29.75 26 29.75H22.5C22.2679 29.75 22.0454 29.8422 21.8813 30.0063C21.7172 30.1704 21.625 30.3929 21.625 30.625C21.625 30.8571 21.7172 31.0796 21.8813 31.2437C22.0454 31.4078 22.2679 31.5 22.5 31.5H26Z" fill="#104EB8"/>
</svg>
