<svg width="20" height="20" viewBox="0 0 20 20" fill="none" xmlns="http://www.w3.org/2000/svg">
<path d="M10.0116 19.9884C8.03605 19.9861 6.1042 19.398 4.46033 18.2986C2.81645 17.1991 1.53438 15.6377 0.776263 13.8117C0.0181433 11.9857 -0.181986 9.97711 0.201182 8.04C0.58435 6.10289 1.53361 4.32424 2.92892 2.92896C4.32422 1.53369 6.1029 0.584457 8.04004 0.201306C9.97717 -0.181844 11.9858 0.0182978 13.8118 0.776418C15.6378 1.53454 17.1993 2.81659 18.2987 4.46045C19.3982 6.10431 19.9862 8.03613 19.9885 10.0116C19.9885 12.6598 18.9382 15.1974 17.0678 17.0677C15.1974 18.9381 12.6598 19.9884 10.0116 19.9884Z" fill="#529647"/>
<path d="M9.2962 13.8005C9.05346 13.8006 8.81708 13.7214 8.62271 13.5748L8.61065 13.5658L6.07271 11.6133C5.95491 11.5228 5.85596 11.4098 5.78153 11.2809C5.70711 11.152 5.65868 11.0097 5.63899 10.8621C5.61931 10.7145 5.62876 10.5645 5.66681 10.4207C5.70487 10.2769 5.77077 10.1421 5.86076 10.0241C5.95075 9.90604 6.06306 9.80704 6.19126 9.73275C6.31946 9.65846 6.46103 9.61033 6.60788 9.59112C6.75473 9.57191 6.90397 9.58201 7.04707 9.62082C7.19017 9.65963 7.32432 9.7264 7.44184 9.81731L9.08572 11.0851L12.961 6.00068C13.0508 5.8828 13.163 5.78392 13.291 5.70968C13.4189 5.63544 13.5603 5.58729 13.7069 5.568C13.8535 5.5487 14.0025 5.55863 14.1455 5.59721C14.2884 5.63579 14.4225 5.70228 14.54 5.79287L14.5403 5.79312L14.5162 5.8267L14.541 5.79312C14.778 5.97633 14.9333 6.2464 14.9727 6.54407C15.0121 6.84173 14.9324 7.14268 14.7511 7.38086L10.193 13.3585C10.0875 13.4963 9.95185 13.6077 9.7965 13.6841C9.64116 13.7605 9.47031 13.7999 9.29719 13.7992L9.2962 13.8005Z" fill="white"/>
</svg>
