<svg width="24" height="24" viewBox="0 0 24 24" fill="none" xmlns="http://www.w3.org/2000/svg">
<path d="M14.0878 23.017L9.92188 18.9547L18.8687 9.81836L23.1819 14.0456L14.0878 23.017Z" fill="#8AB4F8"/>
<path d="M14.1048 5.05654L9.95386 0.818359L0.8775 9.80881C-0.2925 10.9788 -0.2925 12.8756 0.8775 14.047L9.8175 23.0456L14.0448 19.0911L7.23341 11.9279L14.1048 5.05654Z" fill="#4285F4"/>
<path d="M23.1208 9.87852L14.1208 0.878523C12.9494 -0.292841 11.0499 -0.292841 9.87852 0.878523C8.70716 2.04989 8.70716 3.94943 9.87852 5.1208L18.8785 14.1208C20.0499 15.2922 21.9494 15.2922 23.1208 14.1208C24.2922 12.9494 24.2922 11.0499 23.1208 9.87852Z" fill="#8AB4F8"/>
<path d="M11.9318 24.0004C13.551 24.0004 14.8636 22.6877 14.8636 21.0685C14.8636 19.4493 13.551 18.1367 11.9318 18.1367C10.3126 18.1367 9 19.4493 9 21.0685C9 22.6877 10.3126 24.0004 11.9318 24.0004Z" fill="#246FDB"/>
</svg>
