<svg width="14" height="15" viewBox="0 0 14 15" fill="none" xmlns="http://www.w3.org/2000/svg">
<path fill-rule="evenodd" clip-rule="evenodd" d="M6.23164 0.126389C6.4483 -0.0421296 6.7517 -0.0421296 6.96836 0.126389L12.9684 4.79306C13.1145 4.90673 13.2 5.08151 13.2 5.26667V12.6C13.2 13.1128 12.9963 13.6045 12.6337 13.9671C12.2712 14.3296 11.7794 14.5333 11.2667 14.5333H1.93333C1.42058 14.5333 0.92883 14.3296 0.56626 13.9671C0.20369 13.6045 0 13.1128 0 12.6V5.26667C0 5.08151 0.0854837 4.90673 0.231636 4.79306L6.23164 0.126389ZM5.2 13.3333H8V7.86667H5.2V13.3333ZM9.2 13.3333V7.26667C9.2 6.9353 8.93137 6.66667 8.6 6.66667H4.6C4.26863 6.66667 4 6.9353 4 7.26667V13.3333H1.93333C1.73884 13.3333 1.55232 13.2561 1.41479 13.1185C1.27726 12.981 1.2 12.7945 1.2 12.6V5.56012L6.6 1.36012L12 5.56012V12.6C12 12.7945 11.9227 12.981 11.7852 13.1185C11.6477 13.2561 11.4612 13.3333 11.2667 13.3333H9.2Z" fill="#484E56"/>
</svg>
