<svg width="54" height="35" viewBox="0 0 54 35" fill="none" xmlns="http://www.w3.org/2000/svg">
<ellipse cx="16.9646" cy="17.5" rx="16.9646" ry="17" fill="white"/>
<path d="M25.7493 16.0932C25.4951 15.063 24.9662 14.1961 24.183 13.4854C23.7169 13.0624 23.1789 12.7266 22.5945 12.4939C21.9584 12.2389 21.2981 12.1033 20.6117 12.1029C19.9731 12.1029 19.1275 12.1029 18.4882 12.1029V22.3707C19.172 22.3707 20.0141 22.3707 20.6979 22.3707C20.9014 22.369 21.1045 22.3532 21.3057 22.3234C22.0424 22.22 22.7323 21.9815 23.3675 21.5925C24.3416 20.9958 25.0638 20.1776 25.5078 19.1207C25.7063 18.6508 25.8273 18.1516 25.8661 17.6428C25.8765 17.5075 25.8856 17.3717 25.8873 17.2356C25.8886 17.1339 25.8758 17.0323 25.872 16.9305C25.8595 16.6479 25.8185 16.3674 25.7493 16.0932Z" fill="#CE1417"/>
<path d="M16.9641 0.5C7.59469 0.5 0 8.11115 0 17.5C0 26.8888 7.59522 34.5 16.9646 34.5C26.334 34.5 33.9292 26.8888 33.9292 17.5C33.9292 8.11115 26.3332 0.5 16.9641 0.5ZM10.6956 27.099H5.89934V11.8551C5.89934 9.38617 7.89595 7.38485 10.3604 7.38485H10.6961L10.6956 27.099ZM30.5947 18.1918C30.5615 18.5186 30.5128 18.8432 30.4487 19.1656C30.3446 19.6815 30.198 20.1879 30.0105 20.6795C29.6339 21.6711 29.0982 22.5943 28.4246 23.4128C27.0519 25.0831 25.1822 26.2698 23.0885 26.7993C22.7711 26.8807 22.4497 26.9454 22.1255 26.993C21.9299 27.0211 21.734 27.0447 21.5373 27.0652C21.3628 27.0829 21.1878 27.0854 21.0135 27.0988C20.6915 27.1236 20.3694 27.1176 20.0473 27.1178C18.018 27.1178 15.7581 27.1178 13.7289 27.1178L13.7494 11.4224C13.7858 11.0102 13.881 10.6054 14.0321 10.2203C14.2769 9.59289 14.6593 9.02861 15.151 8.56916C15.6426 8.1097 16.2311 7.76681 16.8727 7.5658C17.1642 7.47463 17.4644 7.41393 17.7684 7.38467C17.9256 7.36927 18.0841 7.36165 18.2422 7.36112C19.0052 7.35882 19.7683 7.35758 20.5314 7.36112C20.848 7.36277 21.164 7.37747 21.4796 7.40521C23.6303 7.59194 25.6654 8.46159 27.2888 9.88761C28.1204 10.6159 28.8243 11.4787 29.3714 12.4401C29.8544 13.2867 30.2066 14.2016 30.4159 15.1539C30.5067 15.5628 30.57 15.9774 30.6055 16.3948C30.6334 16.7331 30.6565 17.0726 30.6424 17.4125C30.6318 17.6723 30.6205 17.9324 30.5947 18.1918Z" fill="#CE1417"/>
<path d="M48.2584 31.7834C48.3873 31.7769 48.5817 31.7397 48.7092 31.7159C48.8968 31.6805 49.0796 31.623 49.2538 31.5444C49.7254 31.3339 50.3051 30.8248 50.5292 30.124C50.6017 29.8975 50.6411 29.6616 50.6461 29.4237C50.6473 29.3727 50.6461 29.3218 50.6461 29.271C50.6461 28.3711 50.6461 27.4713 50.6461 26.5715C50.6461 26.5153 50.648 26.4102 50.6461 26.3539C50.6461 26.3539 50.6185 26.3704 50.6015 26.3806C50.5682 26.402 50.5336 26.4213 50.498 26.4385C50.1979 26.5925 49.8827 26.7145 49.5576 26.8026C49.2655 26.8841 48.9664 26.9374 48.6643 26.9619C48.4854 26.9773 48.3058 26.9832 48.1263 26.9796C47.3516 26.9587 46.6157 26.7849 45.9309 26.4098C45.0985 25.9528 44.2407 25.1074 43.8017 24.0784C43.6415 23.704 43.5307 23.31 43.4721 22.9066C43.4315 22.6208 43.4118 22.3325 43.4132 22.0438L43.3816 18.6393L38.6149 18.6814C38.6149 21.296 38.6149 24.361 38.6149 26.9758H36.1729V12.0877C36.1719 11.8557 36.1841 11.6238 36.2096 11.3932C36.3088 10.5245 36.6165 9.73943 37.1523 9.04904C37.4666 8.64181 37.8403 8.28511 38.2608 7.99116C38.7934 7.61977 39.3987 7.36777 40.036 7.25212C40.2906 7.20488 40.5474 7.18382 40.8049 7.16719C40.844 7.16471 40.9871 7.16489 41.0262 7.16524L41.0362 9.60868C40.9547 9.61222 40.8228 9.6239 40.7428 9.62956C40.6761 9.6377 40.6093 9.64584 40.5432 9.65787C40.1545 9.72823 39.7913 9.90159 39.4908 10.1602C39.203 10.4035 38.9711 10.691 38.8163 11.0383C38.7048 11.2862 38.6394 11.5527 38.6233 11.8244C38.6179 11.9203 38.6165 12.0167 38.6165 12.1128L38.6312 16.5455L45.8575 16.5467L45.8611 22.2263C45.8776 22.7601 46.0555 23.2319 46.3949 23.6417C46.6699 23.9733 47.0015 24.2275 47.4074 24.3771C47.6233 24.4583 47.8505 24.5047 48.0807 24.5144C48.2828 24.5218 48.4841 24.5184 48.6846 24.4834C49.0682 24.4174 49.4286 24.2529 49.7308 24.0057C49.911 23.8607 50.0713 23.6924 50.2076 23.505C50.4921 23.1141 50.6322 22.6734 50.648 22.1914C50.6508 22.1065 50.649 22.0216 50.649 21.9368C50.649 20.222 50.649 18.2865 50.649 16.5719L53.0411 16.5612V28.7749C53.0372 28.9624 53.0386 30.2788 52.9458 30.7493C52.7897 31.3482 52.4996 31.8325 52.1225 32.321C51.8227 32.7106 51.4682 33.0542 51.0702 33.3408C50.4554 33.7831 49.7722 34.051 49.0252 34.1575C48.847 34.1828 48.6678 34.1929 48.4891 34.2081C48.428 34.2134 48.3223 34.2081 48.2611 34.2081L48.2584 31.7834Z" fill="white"/>
</svg>
