<svg width="91" height="56" viewBox="0 0 91 56" fill="none" xmlns="http://www.w3.org/2000/svg">
<rect width="91" height="56" rx="6" fill="#F3F3F4"/>
<path d="M20 13.4C20 11.1598 20 10.0397 20.436 9.18404C20.8195 8.43139 21.4314 7.81947 22.184 7.43597C23.0397 7 24.1598 7 26.4 7H64.6C66.8402 7 67.9603 7 68.816 7.43597C69.5686 7.81947 70.1805 8.43139 70.564 9.18404C71 10.0397 71 11.1598 71 13.4V42.6C71 44.8402 71 45.9603 70.564 46.816C70.1805 47.5686 69.5686 48.1805 68.816 48.564C67.9603 49 66.8402 49 64.6 49H26.4C24.1598 49 23.0397 49 22.184 48.564C21.4314 48.1805 20.8195 47.5686 20.436 46.816C20 45.9603 20 44.8402 20 42.6V13.4Z" fill="#4F76C1"/>
</svg>
