<svg width="40" height="56" viewBox="0 0 40 56" fill="none" xmlns="http://www.w3.org/2000/svg">
<rect x="40" y="56" width="40" height="56" rx="4" transform="rotate(-180 40 56)" fill="#F3F3F4"/>
<path d="M40 19L0 19L1.10153e-06 6.4C1.29737e-06 4.15979 1.3953e-06 3.03968 0.435976 2.18403C0.819467 1.43139 1.43139 0.819464 2.18404 0.435971C3.03969 -3.23117e-06 4.15979 -3.13325e-06 6.4 -2.93741e-06L33.6 -5.59506e-07C35.8402 -3.6366e-07 36.9603 -2.65738e-07 37.816 0.435974C38.5686 0.819467 39.1805 1.43139 39.564 2.18404C40 3.03969 40 4.15979 40 6.4L40 19Z" fill="#4F76C1"/>
</svg>
