<svg width="36" height="36" viewBox="0 0 36 36" fill="none" xmlns="http://www.w3.org/2000/svg">
<rect width="36" height="36" rx="18" fill="#214698" fill-opacity="0.08"/>
<path d="M13.8017 21.2445C13.6309 21.4163 13.5351 21.6486 13.5351 21.8908C13.5351 22.133 13.6309 22.3653 13.8017 22.537C13.8869 22.623 13.9883 22.6911 14.1 22.7377C14.2117 22.7842 14.3315 22.8082 14.4525 22.8082C14.5735 22.8082 14.6933 22.7842 14.805 22.7377C14.9167 22.6911 15.0181 22.623 15.1033 22.537C15.2741 22.3653 15.3699 22.133 15.3699 21.8908C15.3699 21.6486 15.2741 21.4163 15.1033 21.2445C15.0181 21.1586 14.9167 21.0904 14.805 21.0439C14.6933 20.9973 14.5735 20.9734 14.4525 20.9734C14.3315 20.9734 14.2117 20.9973 14.1 21.0439C13.9883 21.0904 13.8869 21.1586 13.8017 21.2445ZM13.8017 13.462C13.6309 13.6338 13.5351 13.8661 13.5351 14.1083C13.5351 14.3505 13.6309 14.5828 13.8017 14.7545C13.8869 14.8405 13.9883 14.9086 14.1 14.9552C14.2117 15.0017 14.3315 15.0257 14.4525 15.0257C14.5735 15.0257 14.6933 15.0017 14.805 14.9552C14.9167 14.9086 15.0181 14.8405 15.1033 14.7545C15.2741 14.5828 15.3699 14.3505 15.3699 14.1083C15.3699 13.8661 15.2741 13.6338 15.1033 13.462C15.0181 13.3761 14.9167 13.3079 14.805 13.2614C14.6933 13.2148 14.5735 13.1909 14.4525 13.1909C14.3315 13.1909 14.2117 13.2148 14.1 13.2614C13.9883 13.3079 13.8869 13.3761 13.8017 13.462ZM18.3392 22.6287C18.1579 22.6287 17.9806 22.6825 17.8299 22.7832C17.6791 22.8839 17.5616 23.0271 17.4923 23.1946C17.4229 23.3621 17.4047 23.5464 17.4401 23.7242C17.4755 23.902 17.5628 24.0654 17.691 24.1936C17.8192 24.3217 17.9825 24.4091 18.1603 24.4444C18.3381 24.4798 18.5224 24.4616 18.6899 24.3923C18.8574 24.3229 19.0006 24.2054 19.1013 24.0546C19.2021 23.9039 19.2558 23.7267 19.2558 23.5454C19.262 23.4212 19.2429 23.297 19.1997 23.1805C19.1564 23.0639 19.0898 22.9574 19.0041 22.8674C18.9183 22.7773 18.8152 22.7057 18.7009 22.6568C18.5866 22.6079 18.4635 22.5827 18.3392 22.5829V22.6287ZM12.8392 17.1287C12.6579 17.1287 12.4806 17.1825 12.3299 17.2832C12.1791 17.3839 12.0616 17.5271 11.9923 17.6946C11.9229 17.8621 11.9047 18.0464 11.9401 18.2242C11.9755 18.402 12.0628 18.5654 12.191 18.6936C12.3192 18.8217 12.4825 18.9091 12.6603 18.9444C12.8381 18.9798 13.0224 18.9616 13.1899 18.8923C13.3574 18.8229 13.5006 18.7054 13.6013 18.5546C13.7021 18.4039 13.7558 18.2267 13.7558 18.0454C13.762 17.9212 13.7429 17.797 13.6997 17.6805C13.6564 17.5639 13.5898 17.4574 13.5041 17.3674C13.4183 17.2773 13.3152 17.2057 13.2009 17.1568C13.0866 17.1079 12.9635 17.0827 12.8392 17.0829V17.1287ZM18.3392 11.6287C18.1579 11.6287 17.9806 11.6825 17.8299 11.7832C17.6791 11.8839 17.5616 12.0271 17.4923 12.1946C17.4229 12.3621 17.4047 12.5464 17.4401 12.7242C17.4755 12.902 17.5628 13.0654 17.691 13.1936C17.8192 13.3217 17.9825 13.4091 18.1603 13.4444C18.3381 13.4798 18.5224 13.4616 18.6899 13.3923C18.8574 13.3229 19.0006 13.2054 19.1013 13.0546C19.2021 12.9039 19.2558 12.7267 19.2558 12.5454C19.262 12.4212 19.2429 12.297 19.1997 12.1805C19.1564 12.0639 19.0898 11.9574 19.0041 11.8674C18.9183 11.7773 18.8152 11.7057 18.7009 11.6568C18.5866 11.6079 18.4635 11.5827 18.3392 11.5829V11.6287ZM21.5842 13.5079C21.4554 13.6358 21.3676 13.7992 21.3318 13.9771C21.2959 14.1551 21.3138 14.3397 21.383 14.5075C21.4522 14.6753 21.5697 14.8188 21.7206 14.9198C21.8714 15.0207 22.0489 15.0746 22.2304 15.0746C22.4119 15.0746 22.5894 15.0207 22.7402 14.9198C22.8911 14.8188 23.0086 14.6753 23.0778 14.5075C23.147 14.3397 23.1649 14.1551 23.1291 13.9771C23.0932 13.7992 23.0054 13.6358 22.8767 13.5079C22.711 13.3309 22.4821 13.2267 22.2399 13.2182C21.9976 13.2096 21.7619 13.2973 21.5842 13.462V13.5079ZM27.3592 13.5079C26.5211 11.8325 25.2329 10.4237 23.6389 9.43943C22.045 8.45519 20.2084 7.93443 18.3351 7.93555C16.4618 7.93667 14.6258 8.45962 13.0331 9.44577C11.4404 10.4319 10.1538 11.8423 9.31776 13.5187C8.48169 15.195 8.12916 17.0712 8.29968 18.9367C8.4702 20.8023 9.15704 22.5834 10.2832 24.0805C11.4093 25.5775 12.9302 26.7312 14.6754 27.4123C16.4205 28.0933 18.3208 28.2747 20.1633 27.9362C20.6266 27.849 21.0679 27.6704 21.4614 27.4107C21.8549 27.151 22.1927 26.8154 22.455 26.4237C22.7376 25.9978 22.9327 25.5199 23.0287 25.0179C23.1247 24.5158 23.1197 23.9997 23.0142 23.4995C22.9564 23.1973 22.9258 22.8905 22.9225 22.5829C22.9265 21.6946 23.1886 20.8266 23.6768 20.0845C24.165 19.3424 24.8583 18.7582 25.6725 18.4029C26.1115 18.2063 26.5055 17.9219 26.8303 17.5672C27.155 17.2124 27.4037 16.7949 27.5608 16.3404C27.7198 15.8759 27.7838 15.3842 27.7492 14.8945C27.7145 14.4048 27.5819 13.927 27.3592 13.4895V13.5079ZM25.8008 15.7445C25.7226 15.9639 25.6012 16.1654 25.4437 16.337C25.2863 16.5086 25.096 16.6469 24.8842 16.7437C23.7566 17.2484 22.7988 18.0679 22.1256 19.1037C21.4524 20.1395 21.0925 21.3475 21.0892 22.5829C21.0905 23.0138 21.1335 23.4436 21.2175 23.8662C21.2735 24.1245 21.2772 24.3914 21.2284 24.6512C21.1796 24.911 21.0792 25.1583 20.9333 25.3787C20.8099 25.5716 20.6474 25.7365 20.4563 25.8628C20.2653 25.9891 20.05 26.074 19.8242 26.112C19.3345 26.204 18.8374 26.2501 18.3392 26.2495C17.2338 26.2501 16.1396 26.0285 15.1216 25.5979C14.1035 25.1674 13.1824 24.5366 12.4129 23.7431C11.6433 22.9497 11.0411 22.0096 10.6419 20.9789C10.2427 19.9481 10.0548 18.8477 10.0892 17.7429C10.1603 15.6829 10.9957 13.7232 12.4327 12.2456C13.8697 10.7679 15.8053 9.87813 17.8625 9.74954H18.33C19.8661 9.74992 21.3716 10.1792 22.6769 10.9889C23.9823 11.7987 25.0356 12.9568 25.7183 14.3329C25.9285 14.7683 25.9581 15.269 25.8008 15.7262V15.7445ZM18.3392 17.0829C18.1579 17.0829 17.9806 17.1366 17.8299 17.2374C17.6791 17.3381 17.5616 17.4812 17.4923 17.6487C17.4229 17.8162 17.4047 18.0006 17.4401 18.1784C17.4755 18.3562 17.5628 18.5195 17.691 18.6477C17.8192 18.7759 17.9825 18.8632 18.1603 18.8986C18.3381 18.934 18.5224 18.9158 18.6899 18.8464C18.8574 18.777 19.0006 18.6596 19.1013 18.5088C19.2021 18.3581 19.2558 18.1808 19.2558 17.9995C19.2558 17.7564 19.1592 17.5233 18.9873 17.3514C18.8154 17.1794 18.5823 17.0829 18.3392 17.0829Z" fill="#131A25"/>
</svg>
