<svg width="22" height="22" viewBox="0 0 22 22" fill="none" xmlns="http://www.w3.org/2000/svg">
<path d="M16.5737 11.3848L10.9087 17.059C10.166 17.719 9.19923 18.0703 8.2061 18.0411C7.21296 18.0118 6.26852 17.6042 5.56596 16.9017C4.8634 16.1991 4.45582 15.2547 4.42658 14.2615C4.39735 13.2684 4.74867 12.3016 5.40868 11.559L12.742 4.22562C13.1798 3.80973 13.7606 3.57784 14.3645 3.57784C14.9684 3.57784 15.5492 3.80973 15.987 4.22562C16.4136 4.65791 16.6528 5.2408 16.6528 5.84812C16.6528 6.45544 16.4136 7.03833 15.987 7.47062L9.66202 13.7865C9.59942 13.8539 9.52416 13.9083 9.44053 13.9466C9.3569 13.9849 9.26654 14.0064 9.17461 14.0098C9.08268 14.0132 8.99098 13.9985 8.90475 13.9665C8.81851 13.9344 8.73943 13.8857 8.67202 13.8231C8.6046 13.7605 8.55018 13.6853 8.51186 13.6016C8.47353 13.518 8.45205 13.4276 8.44865 13.3357C8.44524 13.2438 8.45998 13.1521 8.49201 13.0658C8.52405 12.9796 8.57275 12.9005 8.63535 12.8331L13.3379 8.13979C13.5105 7.96718 13.6074 7.73306 13.6074 7.48895C13.6074 7.24484 13.5105 7.01073 13.3379 6.83812C13.1652 6.66551 12.9311 6.56854 12.687 6.56854C12.4429 6.56854 12.2088 6.66551 12.0362 6.83812L7.33368 11.5498C7.09838 11.7833 6.91162 12.061 6.78417 12.367C6.65672 12.673 6.59111 13.0012 6.59111 13.3327C6.59111 13.6642 6.65672 13.9924 6.78417 14.2984C6.91162 14.6044 7.09838 14.8821 7.33368 15.1156C7.81436 15.5735 8.45276 15.8289 9.1166 15.8289C9.78044 15.8289 10.4188 15.5735 10.8995 15.1156L17.2154 8.79062C17.944 8.00866 18.3407 6.9744 18.3218 5.90575C18.303 4.83709 17.87 3.81747 17.1143 3.0617C16.3585 2.30593 15.3389 1.87301 14.2702 1.85416C13.2016 1.8353 12.1673 2.23198 11.3854 2.96062L4.05202 10.294C3.06312 11.3892 2.53496 12.8238 2.57759 14.2988C2.62022 15.7739 3.23035 17.1756 4.28085 18.2119C5.33136 19.2482 6.74122 19.8393 8.21669 19.8618C9.69217 19.8844 11.1195 19.3368 12.2012 18.3331L17.8754 12.6681C17.9608 12.5827 18.0286 12.4812 18.0749 12.3695C18.1211 12.2578 18.1449 12.1382 18.1449 12.0173C18.1449 11.8964 18.1211 11.7767 18.0749 11.6651C18.0286 11.5534 17.9608 11.4519 17.8754 11.3665C17.7899 11.281 17.6884 11.2132 17.5767 11.1669C17.4651 11.1207 17.3454 11.0969 17.2245 11.0969C17.1036 11.0969 16.984 11.1207 16.8723 11.1669C16.7606 11.2132 16.6592 11.281 16.5737 11.3665V11.3848Z" fill="#131A25"/>
</svg>
