<svg width="17" height="12" viewBox="0 0 17 12" fill="none" xmlns="http://www.w3.org/2000/svg">
<path fill-rule="evenodd" clip-rule="evenodd" d="M1.84996 5.99974C1.92525 6.13104 2.02888 6.30452 2.16001 6.50756C2.46892 6.98586 2.92647 7.6221 3.5208 8.25604C4.72038 9.5356 6.40611 10.7331 8.49974 10.7331C10.5934 10.7331 12.2791 9.5356 13.4787 8.25604C14.073 7.6221 14.5306 6.98586 14.8395 6.50756C14.9706 6.30452 15.0742 6.13104 15.1495 5.99974C15.0742 5.86844 14.9706 5.69496 14.8395 5.49192C14.5306 5.01362 14.073 4.37738 13.4787 3.74344C12.2791 2.46388 10.5934 1.26641 8.49974 1.26641C6.40611 1.26641 4.72038 2.46388 3.5208 3.74344C2.92647 4.37738 2.46892 5.01362 2.16001 5.49192C2.02888 5.69496 1.92525 5.86844 1.84996 5.99974ZM15.8331 5.99974C16.3697 5.73141 16.3696 5.73121 16.3695 5.73098L16.3685 5.72896L16.3663 5.72458L16.3589 5.7101C16.3526 5.69796 16.3438 5.68089 16.3323 5.65921C16.3094 5.61586 16.276 5.55405 16.2323 5.47642C16.145 5.32122 16.0163 5.10232 15.8475 4.84089C15.5106 4.31919 15.0098 3.6221 14.3541 2.92271C13.0537 1.5356 11.0728 0.0664062 8.49974 0.0664062C5.9267 0.0664062 3.94576 1.5356 2.64535 2.92271C1.98967 3.6221 1.4889 4.31919 1.15197 4.84089C0.983129 5.10232 0.854454 5.32122 0.767159 5.47642C0.723489 5.55405 0.690106 5.61586 0.667167 5.65921C0.655695 5.68089 0.646829 5.69796 0.640588 5.7101L0.633195 5.72458L0.630978 5.72896L0.630241 5.73043C0.630128 5.73066 0.62975 5.73141 1.16641 5.99974L0.62975 5.73141C0.545292 5.90033 0.545292 6.09915 0.62975 6.26807L1.16641 5.99974C0.62975 6.26807 0.629638 6.26784 0.62975 6.26807L0.630241 6.26905L0.630978 6.27051L0.633195 6.2749L0.640588 6.28937C0.646829 6.30151 0.655695 6.31859 0.667167 6.34027C0.690106 6.38362 0.723489 6.44543 0.767159 6.52306C0.854454 6.67825 0.983129 6.89716 1.15197 7.15859C1.4889 7.68028 1.98967 8.37738 2.64535 9.07677C3.94576 10.4639 5.9267 11.9331 8.49974 11.9331C11.0728 11.9331 13.0537 10.4639 14.3541 9.07677C15.0098 8.37738 15.5106 7.68028 15.8475 7.15859C16.0163 6.89716 16.145 6.67825 16.2323 6.52306C16.276 6.44543 16.3094 6.38362 16.3323 6.34027C16.3438 6.31859 16.3526 6.30151 16.3589 6.28937L16.3663 6.2749L16.3685 6.27051L16.3692 6.26905C16.3693 6.26882 16.3697 6.26807 15.8331 5.99974ZM15.8331 5.99974L16.3697 6.26807C16.4542 6.09915 16.454 5.8999 16.3695 5.73098L15.8331 5.99974ZM15.2967 6.26857C15.2967 6.26865 15.2967 6.26866 15.2967 6.26857V6.26857Z" fill="#214698"/>
<path fill-rule="evenodd" clip-rule="evenodd" d="M8.49974 4.59974C7.72654 4.59974 7.09974 5.22654 7.09974 5.99974C7.09974 6.77294 7.72654 7.39974 8.49974 7.39974C9.27294 7.39974 9.89974 6.77294 9.89974 5.99974C9.89974 5.22654 9.27294 4.59974 8.49974 4.59974ZM5.89974 5.99974C5.89974 4.5638 7.0638 3.39974 8.49974 3.39974C9.93568 3.39974 11.0997 4.5638 11.0997 5.99974C11.0997 7.43568 9.93568 8.59974 8.49974 8.59974C7.0638 8.59974 5.89974 7.43568 5.89974 5.99974Z" fill="#214698"/>
</svg>
