<svg width="24" height="24" viewBox="0 0 24 24" fill="none" xmlns="http://www.w3.org/2000/svg">
<path fill-rule="evenodd" clip-rule="evenodd" d="M15.8472 8.15281C16.0509 8.35657 16.0509 8.68691 15.8472 8.89066L8.89066 15.8472C8.68691 16.0509 8.35657 16.0509 8.15281 15.8472C7.94906 15.6434 7.94906 15.3131 8.15281 15.1093L15.1093 8.15281C15.3131 7.94906 15.6434 7.94906 15.8472 8.15281Z" fill="#A21615"/>
<path fill-rule="evenodd" clip-rule="evenodd" d="M8.15281 8.15281C8.35657 7.94906 8.68691 7.94906 8.89066 8.15281L15.8472 15.1093C16.0509 15.3131 16.0509 15.6434 15.8472 15.8472C15.6434 16.0509 15.3131 16.0509 15.1093 15.8472L8.15281 8.89066C7.94906 8.68691 7.94906 8.35657 8.15281 8.15281Z" fill="#A21615"/>
<path fill-rule="evenodd" clip-rule="evenodd" d="M15.8472 8.15281C16.0509 8.35657 16.0509 8.68691 15.8472 8.89066L8.89066 15.8472C8.68691 16.0509 8.35657 16.0509 8.15281 15.8472C7.94906 15.6434 7.94906 15.3131 8.15281 15.1093L15.1093 8.15281C15.3131 7.94906 15.6434 7.94906 15.8472 8.15281Z" stroke="#A21615" stroke-linecap="round" stroke-linejoin="round"/>
<path fill-rule="evenodd" clip-rule="evenodd" d="M8.15281 8.15281C8.35657 7.94906 8.68691 7.94906 8.89066 8.15281L15.8472 15.1093C16.0509 15.3131 16.0509 15.6434 15.8472 15.8472C15.6434 16.0509 15.3131 16.0509 15.1093 15.8472L8.15281 8.89066C7.94906 8.68691 7.94906 8.35657 8.15281 8.15281Z" stroke="#A21615" stroke-linecap="round" stroke-linejoin="round"/>
<path d="M12 21C16.9706 21 21 16.9706 21 12C21 7.02944 16.9706 3 12 3C7.02944 3 3 7.02944 3 12C3 16.9706 7.02944 21 12 21Z" stroke="#A21615" stroke-width="2"/>
</svg>
