<svg width="21" height="20" viewBox="0 0 21 20" fill="none" xmlns="http://www.w3.org/2000/svg">
<path fill-rule="evenodd" clip-rule="evenodd" d="M4.66667 3.25C4.16041 3.25 3.75 3.66041 3.75 4.16667V15.8333C3.75 16.3396 4.16041 16.75 4.66667 16.75H16.3333C16.8396 16.75 17.25 16.3396 17.25 15.8333V4.16667C17.25 3.66041 16.8396 3.25 16.3333 3.25H4.66667ZM2.25 4.16667C2.25 2.83198 3.33198 1.75 4.66667 1.75H16.3333C17.668 1.75 18.75 2.83198 18.75 4.16667V15.8333C18.75 17.168 17.668 18.25 16.3333 18.25H4.66667C3.33198 18.25 2.25 17.168 2.25 15.8333V4.16667Z" fill="#214698"/>
<path fill-rule="evenodd" clip-rule="evenodd" d="M8 6.75C8.41421 6.75 8.75 7.08579 8.75 7.5V17.5C8.75 17.9142 8.41421 18.25 8 18.25C7.58579 18.25 7.25 17.9142 7.25 17.5V7.5C7.25 7.08579 7.58579 6.75 8 6.75Z" fill="#214698"/>
<path fill-rule="evenodd" clip-rule="evenodd" d="M2.25 7.5C2.25 7.08579 2.58579 6.75 3 6.75H18C18.4142 6.75 18.75 7.08579 18.75 7.5C18.75 7.91421 18.4142 8.25 18 8.25H3C2.58579 8.25 2.25 7.91421 2.25 7.5Z" fill="#214698"/>
</svg>
