<svg width="16" height="18" viewBox="0 0 16 18" fill="none" xmlns="http://www.w3.org/2000/svg">
<path d="M8.75 15.75H2.625C2.39294 15.75 2.17038 15.6578 2.00628 15.4937C1.84219 15.3296 1.75 15.1071 1.75 14.875V2.625C1.75 2.39294 1.84219 2.17038 2.00628 2.00628C2.17038 1.84219 2.39294 1.75 2.625 1.75H7V4.375C7 5.07119 7.27656 5.73887 7.76884 6.23115C8.26113 6.72344 8.92881 7 9.625 7H12.25V8.75C12.25 8.98206 12.3422 9.20462 12.5063 9.36872C12.6704 9.53281 12.8929 9.625 13.125 9.625C13.3571 9.625 13.5796 9.53281 13.7437 9.36872C13.9078 9.20462 14 8.98206 14 8.75V6.125C14 6.125 14 6.125 14 6.0725C13.9909 5.99212 13.9733 5.91293 13.9475 5.83625V5.7575C13.9054 5.66753 13.8493 5.58483 13.7812 5.5125L8.53125 0.2625C8.45892 0.194439 8.37622 0.138321 8.28625 0.0962499C8.26013 0.0925401 8.23362 0.0925401 8.2075 0.0962499C8.11861 0.0452736 8.02045 0.0125512 7.91875 0H2.625C1.92881 0 1.26113 0.276562 0.768845 0.768845C0.276562 1.26113 0 1.92881 0 2.625V14.875C0 15.5712 0.276562 16.2389 0.768845 16.7312C1.26113 17.2234 1.92881 17.5 2.625 17.5H8.75C8.98206 17.5 9.20462 17.4078 9.36872 17.2437C9.53281 17.0796 9.625 16.8571 9.625 16.625C9.625 16.3929 9.53281 16.1704 9.36872 16.0063C9.20462 15.8422 8.98206 15.75 8.75 15.75ZM8.75 2.98375L11.0163 5.25H9.625C9.39294 5.25 9.17038 5.15781 9.00628 4.99372C8.84219 4.82962 8.75 4.60706 8.75 4.375V2.98375ZM4.375 5.25C4.14294 5.25 3.92038 5.34219 3.75628 5.50628C3.59219 5.67038 3.5 5.89293 3.5 6.125C3.5 6.35706 3.59219 6.57962 3.75628 6.74372C3.92038 6.90781 4.14294 7 4.375 7H5.25C5.48206 7 5.70462 6.90781 5.86872 6.74372C6.03281 6.57962 6.125 6.35706 6.125 6.125C6.125 5.89293 6.03281 5.67038 5.86872 5.50628C5.70462 5.34219 5.48206 5.25 5.25 5.25H4.375ZM9.625 8.75H4.375C4.14294 8.75 3.92038 8.84219 3.75628 9.00628C3.59219 9.17037 3.5 9.39293 3.5 9.625C3.5 9.85706 3.59219 10.0796 3.75628 10.2437C3.92038 10.4078 4.14294 10.5 4.375 10.5H9.625C9.85706 10.5 10.0796 10.4078 10.2437 10.2437C10.4078 10.0796 10.5 9.85706 10.5 9.625C10.5 9.39293 10.4078 9.17037 10.2437 9.00628C10.0796 8.84219 9.85706 8.75 9.625 8.75ZM15.4962 13.3787L13.7462 11.6287C13.663 11.5491 13.5649 11.4866 13.4575 11.445C13.2445 11.3575 13.0055 11.3575 12.7925 11.445C12.6851 11.4866 12.587 11.5491 12.5038 11.6287L10.7537 13.3787C10.589 13.5435 10.4964 13.767 10.4964 14C10.4964 14.233 10.589 14.4565 10.7537 14.6212C10.9185 14.786 11.142 14.8786 11.375 14.8786C11.608 14.8786 11.8315 14.786 11.9962 14.6212L12.25 14.3587V16.625C12.25 16.8571 12.3422 17.0796 12.5063 17.2437C12.6704 17.4078 12.8929 17.5 13.125 17.5C13.3571 17.5 13.5796 17.4078 13.7437 17.2437C13.9078 17.0796 14 16.8571 14 16.625V14.3587L14.2538 14.6212C14.3351 14.7033 14.4319 14.7684 14.5385 14.8128C14.6451 14.8572 14.7595 14.8801 14.875 14.8801C14.9905 14.8801 15.1049 14.8572 15.2115 14.8128C15.3181 14.7684 15.4149 14.7033 15.4962 14.6212C15.5783 14.5399 15.6434 14.4431 15.6878 14.3365C15.7322 14.2299 15.7551 14.1155 15.7551 14C15.7551 13.8845 15.7322 13.7701 15.6878 13.6635C15.6434 13.5569 15.5783 13.4601 15.4962 13.3787ZM7.875 14C8.10706 14 8.32962 13.9078 8.49372 13.7437C8.65781 13.5796 8.75 13.3571 8.75 13.125C8.75 12.8929 8.65781 12.6704 8.49372 12.5063C8.32962 12.3422 8.10706 12.25 7.875 12.25H4.375C4.14294 12.25 3.92038 12.3422 3.75628 12.5063C3.59219 12.6704 3.5 12.8929 3.5 13.125C3.5 13.3571 3.59219 13.5796 3.75628 13.7437C3.92038 13.9078 4.14294 14 4.375 14H7.875Z" fill="#104EB8"/>
</svg>
