<svg width="12" height="15" viewBox="0 0 12 15" fill="none" xmlns="http://www.w3.org/2000/svg">
<path d="M6.5325 6.9675C6.46117 6.89922 6.37706 6.8457 6.285 6.81C6.1024 6.73499 5.8976 6.73499 5.715 6.81C5.62294 6.8457 5.53883 6.89922 5.4675 6.9675L3.9675 8.4675C3.82627 8.60873 3.74693 8.80027 3.74693 9C3.74693 9.19973 3.82627 9.39127 3.9675 9.5325C4.10873 9.67373 4.30027 9.75307 4.5 9.75307C4.69973 9.75307 4.89127 9.67373 5.0325 9.5325L5.25 9.3075V11.25C5.25 11.4489 5.32902 11.6397 5.46967 11.7803C5.61032 11.921 5.80109 12 6 12C6.19891 12 6.38968 11.921 6.53033 11.7803C6.67098 11.6397 6.75 11.4489 6.75 11.25V9.3075L6.9675 9.5325C7.03722 9.6028 7.12017 9.65859 7.21157 9.69667C7.30296 9.73475 7.40099 9.75435 7.5 9.75435C7.59901 9.75435 7.69704 9.73475 7.78843 9.69667C7.87983 9.65859 7.96278 9.6028 8.0325 9.5325C8.1028 9.46278 8.15859 9.37983 8.19667 9.28843C8.23475 9.19704 8.25435 9.09901 8.25435 9C8.25435 8.90099 8.23475 8.80296 8.19667 8.71157C8.15859 8.62017 8.1028 8.53722 8.0325 8.4675L6.5325 6.9675ZM12 5.205C11.9922 5.1361 11.9771 5.06822 11.955 5.0025V4.935C11.9189 4.85788 11.8708 4.787 11.8125 4.725L7.3125 0.225C7.2505 0.166662 7.17962 0.118561 7.1025 0.0824999H7.0275C6.95457 0.0435023 6.8762 0.0156915 6.795 0H2.25C1.65326 0 1.08097 0.237053 0.65901 0.65901C0.237053 1.08097 0 1.65326 0 2.25V12.75C0 13.3467 0.237053 13.919 0.65901 14.341C1.08097 14.7629 1.65326 15 2.25 15H9.75C10.3467 15 10.919 14.7629 11.341 14.341C11.7629 13.919 12 13.3467 12 12.75V5.25C12 5.25 12 5.25 12 5.205ZM7.5 2.5575L9.4425 4.5H8.25C8.05109 4.5 7.86032 4.42098 7.71967 4.28033C7.57902 4.13968 7.5 3.94891 7.5 3.75V2.5575ZM10.5 12.75C10.5 12.9489 10.421 13.1397 10.2803 13.2803C10.1397 13.421 9.94891 13.5 9.75 13.5H2.25C2.05109 13.5 1.86032 13.421 1.71967 13.2803C1.57902 13.1397 1.5 12.9489 1.5 12.75V2.25C1.5 2.05109 1.57902 1.86032 1.71967 1.71967C1.86032 1.57902 2.05109 1.5 2.25 1.5H6V3.75C6 4.34674 6.23705 4.91903 6.65901 5.34099C7.08097 5.76295 7.65326 6 8.25 6H10.5V12.75Z" fill="#131A25"/>
</svg>
