<svg width="50" height="50" viewBox="0 0 50 50" fill="none" xmlns="http://www.w3.org/2000/svg">
<rect width="50" height="50" rx="8" fill="#1A7A1E" fill-opacity="0.1"/>
<g clip-path="url(#clip0_1533_32349)">
<path d="M13.125 12.65C13.125 10.4961 14.8711 8.75 17.025 8.75H26.725L37.125 19.475V37.85C37.125 40.0039 35.3789 41.75 33.225 41.75H17.025C14.8711 41.75 13.125 40.0039 13.125 37.85V12.65Z" fill="#1A7A1E"/>
<path d="M30.8375 19.3125H37.5L26.9375 8.75V15.4125C26.9375 17.5664 28.6836 19.3125 30.8375 19.3125Z" fill="white" fill-opacity="0.5"/>
</g>
<path d="M33.0003 29.7207L31.0768 35.0248H29.9718L28.0449 29.7207H29.1534L30.4967 33.8024H30.5519L31.8918 29.7207H33.0003Z" fill="white"/>
<path d="M27.477 31.0164L26.5412 31.1821C26.5021 31.0624 26.4399 30.9484 26.3547 30.8402C26.2719 30.732 26.1591 30.6434 26.0163 30.5743C25.8736 30.5053 25.6952 30.4708 25.4811 30.4708C25.1887 30.4708 24.9447 30.5364 24.749 30.6676C24.5533 30.7965 24.4555 30.9634 24.4555 31.1683C24.4555 31.3456 24.5211 31.4883 24.6523 31.5965C24.7835 31.7047 24.9953 31.7933 25.2877 31.8624L26.1303 32.0558C26.6183 32.1686 26.9821 32.3424 27.2215 32.5772C27.4609 32.812 27.5806 33.1171 27.5806 33.4923C27.5806 33.81 27.4885 34.0932 27.3044 34.3418C27.1225 34.5881 26.8681 34.7815 26.5412 34.9219C26.2166 35.0624 25.8402 35.1326 25.412 35.1326C24.8181 35.1326 24.3335 35.006 23.9582 34.7527C23.583 34.4972 23.3528 34.1346 23.2676 33.665L24.2656 33.513C24.3277 33.7732 24.4555 33.97 24.6489 34.1035C24.8422 34.2347 25.0943 34.3004 25.4051 34.3004C25.7435 34.3004 26.014 34.2301 26.2166 34.0897C26.4192 33.947 26.5205 33.7732 26.5205 33.5683C26.5205 33.4025 26.4583 33.2632 26.334 33.1504C26.212 33.0376 26.0244 32.9525 25.7711 32.8949L24.8733 32.6981C24.3784 32.5853 24.0123 32.4057 23.7752 32.1594C23.5404 31.913 23.423 31.6011 23.423 31.2236C23.423 30.9105 23.5105 30.6365 23.6854 30.4017C23.8604 30.1669 24.1021 29.9839 24.4106 29.8526C24.7191 29.7191 25.0725 29.6523 25.4707 29.6523C26.044 29.6523 26.4952 29.7767 26.8244 30.0253C27.1536 30.2716 27.3711 30.602 27.477 31.0164Z" fill="white"/>
<path d="M20.4725 35.1326C19.9591 35.1326 19.5171 35.0163 19.1465 34.7838C18.7781 34.549 18.495 34.2255 18.297 33.8135C18.099 33.4014 18 32.9294 18 32.3976C18 31.8589 18.1013 31.3835 18.3039 30.9715C18.5065 30.5571 18.7919 30.2336 19.1603 30.0011C19.5286 29.7686 19.9626 29.6523 20.4621 29.6523C20.865 29.6523 21.2241 29.7272 21.5395 29.8768C21.8549 30.0241 22.1093 30.2313 22.3027 30.4984C22.4984 30.7654 22.6146 31.0774 22.6515 31.4342H21.6466C21.5913 31.1856 21.4647 30.9715 21.2667 30.7919C21.071 30.6123 20.8086 30.5226 20.4794 30.5226C20.1916 30.5226 19.9395 30.5985 19.7231 30.7505C19.509 30.9001 19.3421 31.1142 19.2224 31.3928C19.1027 31.669 19.0429 31.9959 19.0429 32.3735C19.0429 32.7602 19.1016 33.094 19.219 33.3749C19.3364 33.6558 19.5021 33.8733 19.7162 34.0276C19.9326 34.1818 20.187 34.2589 20.4794 34.2589C20.6751 34.2589 20.8523 34.2232 21.0112 34.1519C21.1723 34.0782 21.307 33.9734 21.4152 33.8376C21.5257 33.7018 21.6028 33.5383 21.6466 33.3473H22.6515C22.6146 33.6903 22.503 33.9965 22.3165 34.2658C22.13 34.5352 21.8802 34.747 21.5672 34.9012C21.2564 35.0555 20.8915 35.1326 20.4725 35.1326Z" fill="white"/>
<defs>
<clipPath id="clip0_1533_32349">
<rect width="24.375" height="32.5" fill="white" transform="translate(13.125 8.75)"/>
</clipPath>
</defs>
</svg>
