<svg width="16" height="16" viewBox="0 0 16 16" fill="none" xmlns="http://www.w3.org/2000/svg">
<path fill-rule="evenodd" clip-rule="evenodd" d="M8.00007 12.5997C7.96325 12.5997 7.9334 12.6296 7.9334 12.6664C7.9334 12.7032 7.96325 12.7331 8.00007 12.7331C8.03688 12.7331 8.06673 12.7032 8.06673 12.6664C8.06673 12.6296 8.03688 12.5997 8.00007 12.5997ZM6.7334 12.6664C6.7334 11.9668 7.3005 11.3997 8.00007 11.3997C8.69963 11.3997 9.26673 11.9668 9.26673 12.6664C9.26673 13.366 8.69963 13.9331 8.00007 13.9331C7.3005 13.9331 6.7334 13.366 6.7334 12.6664Z" fill="#131A25"/>
<path fill-rule="evenodd" clip-rule="evenodd" d="M8.00007 7.93307C7.96325 7.93307 7.9334 7.96292 7.9334 7.99974C7.9334 8.03656 7.96325 8.06641 8.00007 8.06641C8.03688 8.06641 8.06673 8.03656 8.06673 7.99974C8.06673 7.96292 8.03688 7.93307 8.00007 7.93307ZM6.7334 7.99974C6.7334 7.30018 7.3005 6.73307 8.00007 6.73307C8.69963 6.73307 9.26673 7.30018 9.26673 7.99974C9.26673 8.6993 8.69963 9.26641 8.00007 9.26641C7.3005 9.26641 6.7334 8.6993 6.7334 7.99974Z" fill="#131A25"/>
<path fill-rule="evenodd" clip-rule="evenodd" d="M8.00007 3.26641C7.96325 3.26641 7.9334 3.29625 7.9334 3.33307C7.9334 3.36989 7.96325 3.39974 8.00007 3.39974C8.03688 3.39974 8.06673 3.36989 8.06673 3.33307C8.06673 3.29625 8.03688 3.26641 8.00007 3.26641ZM6.7334 3.33307C6.7334 2.63351 7.3005 2.06641 8.00007 2.06641C8.69963 2.06641 9.26673 2.63351 9.26673 3.33307C9.26673 4.03263 8.69963 4.59974 8.00007 4.59974C7.3005 4.59974 6.7334 4.03263 6.7334 3.33307Z" fill="#131A25"/>
</svg>
